<svg version="1.1"
     id="Content"
     xmlns="http://www.w3.org/2000/svg"
     x="0"
     y="0"
     viewBox="0 0 523.13 90"
     xml:space="preserve">

  <style>
    .st0 { fill: white; }
  </style>

  <!-- ================================================== -->
  <!-- WHITE WORDMARK (top section)                       -->
  <!-- ================================================== -->
  <path class="st0"
        d="M148.21 18.51h13l2.7 52h-10.94l-.07-11h-13.84l-4.73 11h-10.9l24.78-52zm-5.49 32.38h10.19l-.06-23.31h-.15l-9.98 23.31z
           M178.62 18.51h10l-11 52h-10l11-52z
           M196.06 18.51h10l-11 52h-10l11-52z
           M214.56 52.41l-.66 3.17c-1 4.58-.7 9.08 3 9.08 3.34 0 5.27-2.53 6.87-7.34h9c-2.3 9.09-7.74 14.19-17.2 14.19-14.56 0-12.77-11.2-10.69-21 2.23-10.47 6.34-20.2 19.87-20.2 11.71 0 12.66 7.84 10.1 19.84l-.47 2.25-19.82.01zm11.52-6c1.05-6 1-9.32-3.11-9.32s-6.05 4.15-6.82 7.79l-.32 1.53h10.25z
           M244.13 31.33h9.61l-1 4.59h.14a13.61 13.61 0 0 1 11.18-5.6c6.25 0 9.24 3.4 7.59 11.12l-6.16 29h-10l5.74-27c.83-3.86-.17-5.43-3.17-5.43-3.42 0-5.76 2.11-6.69 6.48l-5.51 26h-10l8.27-39.16z
           M297.94 45.13l-1.82 8.59h-20.51l1.81-8.59h20.52z
           M310.43 18.51h17.54c8.58 0 14.08 3.21 12 13.17-1.19 5.6-4.78 9.91-10.26 11.34v.17c5.57.79 8.36 5.15 6.88 12.06-1.72 8.16-7.22 15.22-19.45 15.22H299.4l11.03-51.96zm5.95 21.32h3c5.74 0 8.79-2 9.82-6.83s-1-6.77-6.13-6.77h-3.78l-2.91 13.6zm-4.87 22.92h4.08c5 0 8.82-1.81 10.1-7.86s-1.76-7.79-6.35-7.79h-4.51l-3.32 15.65z
           M347.86 31.33h9.61l-1.12 5.25h.15c2.84-3.78 6.2-6.24 10.35-6.24a12.13 12.13 0 0 1 1.8.14l-2.06 9.59c-1-.08-2.08-.14-3.08-.14a8.74 8.74 0 0 0-8.93 7.06l-5 23.5h-10l8.28-39.16z
           M369.45 43.33l.2-1c1.92-9 8.76-12.06 16.32-12.06 11.94 0 13.13 4.92 11.63 12l-4.37 20.58c-.77 3.64-.91 5.32-.37 7.58h-9.59a14.18 14.18 0 0 1-.38-4.08h-.15c-3.2 4.08-6.25 5.1-11.05 5.1-7 0-8.19-6-7.08-11.2 1.57-7.37 5.18-10.33 12.49-12.24l5.96-1.43c3.17-.82 4.42-2 5-4.59.63-3-.29-4.8-3.64-4.8-3.05 0-5.09 2-5.74 5.1l-.24 1.09-8.99-.05zm16.73 7.56a15.38 15.38 0 0 1-4.71 2c-4.26.87-6.28 2.85-7 6.34-.63 3-.06 5.45 2.63 5.45a7.68 7.68 0 0 0 7.47-6l1.61-7.79z
           M419.7 66.31h-.13c-3 3.66-6.05 5.18-10 5.18-8.23 0-10.74-6-7.64-20.6s8.17-20.57 16.39-20.57c3.78 0 6 1.52 7.44 4.63h.15l3.5-16.44h10l-11 52h-9.61l.9-4.2zm-5.19-2.53c4.43 0 6.24-4.38 8-12.89s1.87-12.88-2.58-12.88-6.16 4.37-8 12.88-1.78 12.89 2.58 12.89z
           M446.52 18.51h10l-11 52h-10.04l11.04-52z
           M465 52.41l-.64 3.17c-1 4.58-.72 9.08 3 9.08 3.34 0 5.26-2.53 6.86-7.34h9c-2.29 9.09-7.75 14.19-17.2 14.19-14.55 0-12.75-11.2-10.67-21 2.23-10.47 6.33-20.2 19.85-20.2 11.73 0 12.68 7.84 10.13 19.84l-.49 2.25-19.84.01zm11.53-6c1.06-6 1-9.32-3.12-9.32-4 0-6 4.15-6.81 7.79l-.32 1.53h10.25z
           M485.14 75.77a14.54 14.54 0 0 0 2.57.21c3.7 0 5.52-2 6.55-5.51l-2.66-39.14h10.46l.08 27.05h.15l10.84-27h10l-17.22 36.51c-6.36 13.54-9 15.43-18.33 15.43h-4.02l1.58-7.55z"/>

  <!-- ================================================== -->
  <!-- WHITE LOGO ICON GROUP (left side)                  -->
  <!-- ================================================== -->
  <g>

    <!-- Small triangle accent in icon -->
    <path class="st0"
          d="M37.11 71.59h1.31l-.65-3.61z
             M23.41 67.64h1.69v5.68h-1.69z"/>

    <!-- Bottom shelf / arc shape -->
    <path class="st0"
          d="M75.14 61.85H7.23a1.5 1.5 0 0 0-1.06 2.56l13.68 13.68a14.6 14.6 0 0 0 10.33 4.28h22a14.6 14.6 0 0 0 10.33-4.28l13.68-13.68a1.5 1.5 0 0 0-1.05-2.56z
             M26.5 73.41a1 1 0 0 1-.83 1c.108.341.377.607.72.71v.41h-.9a2.68 2.68 0 0 1-1.32-1.1H23a1 1 0 0 1-1-1v-5.85a1 1 0 0 1 1-1h2.51a1 1 0 0 1 1 1l-.01 5.83z
             M33.32 73.41a1 1 0 0 1-1 1h-2.5a1 1 0 0 1-1-1v-6.83h1.39v6.74h1.69v-6.74h1.4l.02 6.83z
             M39.09 74.41l-.4-1.73h-1.84l-.4 1.73h-1.39l1.77-7.83h1.88l1.81 7.82-1.43.01z
             M45.81 74.41h-3.48v-7.83h1.4v6.52h2.08v1.31z
             M48.89 74.41h-1.4v-7.83h1.4v7.83z
             M54.12 67.67H53v6.74h-1.4v-6.74h-1.12v-1.09h3.64v1.09z
             M58.83 70.79v3.62h-1.3v-3.62l-2.16-4.21h1.56l1.25 2.72 1.25-2.72h1.56l-2.16 4.21z
             M61.41 36.74h-6.8v-3.36h5.16a2.3 2.3 0 0 0 2.09-2V24.5a2.43 2.43 0 0 0-2.54-2.18h-7.89v26.26H61.5a3.18 3.18 0 0 0 2.56-2.59v-6.62a3.16 3.16 0 0 0-2.65-2.63z"/>

    <!-- Main rounded shield / badge shape with "A" lettering -->
    <path class="st0"
          d="M78.58 20.32 62.06 3.79A13 13 0 0 0 52.9 0H29.49a13 13 0 0 0-9.16 3.79L3.8 20.32A13 13 0 0 0 0 29.49v24.26a5.2 5.2 0 0 0 5.2 5.2H77.16a5.21 5.21 0 0 0 5.21-5.21V29.49a13 13 0 0 0-3.79-9.17z
             M31.39 51.97s.33-.71-.49-2.84l-2.5-6.5h-8.52v-3.35h7.34l-5.56-14.57-9 24.72a4.49 4.49 0 0 0-.09 2.54H7.3c.25 0 1-.47 2-3.35L19.81 18.8h7l12.18 31.36s.62 1.6 1.29 1.81h-8.89z
             M41.76 36.83h-4.9v-3.36h4.9v3.36z
             M71.06 46.18a5.8 5.8 0 0 1-5.8 5.8H43.72c1-1 .82-3.35.82-3.35V23.11c0-3.41-1.09-4.31-1.09-4.31h20.61a5.46 5.46 0 0 1 5.18 5.45v6.07a4.31 4.31 0 0 1-4.31 4.32h.46a5.65 5.65 0 0 1 5.67 5.65v5.89z"/>

  </g>

</svg>