
<svg xmlns="http://www.w3.org/2000/svg" xmlns:xlink="http://www.w3.org/1999/xlink" x="0px" y="0px"
	 viewBox="0 0 141.5 74" xml:space="preserve">
<path style="fill:#47B2AA;" d="M58.2,11.8C68,6,78.1,5.9,88,7.4C80.3,3.4,71.7,1.3,63,1c20.2-4.3,35.8,6.8,50.8,11
	c6.3,0.7,12.5,0.4,18.4-2c-1.9,1.2-3.9,2.4-5.9,3.4c4.9-0.5,9.6-2.4,13.6-5.4c-11.4,17.2-21,16-32.3,10.2
	C91,18.3,77.5,8.5,58.2,11.8"/>
<path style="fill:#47B2AA;" d="M27.3,10.3C50.4,3.8,60.7,27,94.6,10.1c-8.8,6.2-15.7,9.2-21.6,10.4c11.9,3.9,23.5,7.4,32.4,0.8
	c-25.1,27-45.1-10.1-76.7,2.7c5.4-6.5,11.7-9,18.4-9.2C41.5,12.4,35.3,10.2,27.3,10.3"/>
<path style="fill:#008B8F;" d="M47.1,14.7c8.3-0.3,17.2,2.8,25.9,5.7C62.6,22.4,55.4,18.3,47.1,14.7"/>
<path style="fill:#008B8F;" d="M88,7.4c8.8,1.3,17.4,3.7,25.8,4.6c4,1.2,8.3,1.7,12.5,1.4c-5.8,3-12.2,4.7-18.7,4.8
	C101.7,15.1,95.3,10.9,88,7.4"/>
<path style="fill:#008B8F;" d="M87.4,14.7c-0.8-0.2-1.6-0.4-2.4-0.6c3.3-1.1,6.5-2.4,9.5-3.9C92,11.9,89.6,13.4,87.4,14.7"/>
<path style="fill:#003C84;" d="M17.4,59.2c0.2,0.3,0.3,0.7,0.3,1.1c0,0.6-0.4,1-1,1.1v0.6H24v-0.6c-0.3-0.1-0.7-0.2-0.9-0.5
	c-0.4-0.5-0.7-1.1-0.9-1.7l-7.5-18.3c-0.2-0.4-0.3-0.8-0.3-1.1c0-0.5,0.4-0.9,0.8-1v-0.6h-7v0.6c0.5,0.1,0.8,0.6,0.8,1.1
	c0,0.5-0.1,1-0.3,1.4L1.6,59.5c-0.2,0.5-0.4,0.9-0.7,1.3c-0.2,0.3-0.5,0.5-0.9,0.5v0.6h6.5v-0.6c-0.6-0.2-0.9-0.5-0.9-1
	c0-0.4,0.1-0.8,0.3-1.1l1.3-3.3h8.9L17.4,59.2L17.4,59.2L17.4,59.2z M8.4,52.6l3.2-8.5l3.2,8.5H8.4z M44.1,57.2
	c1.3-2.2,2-4.7,1.9-7.3c0-1.6-0.2-3.1-0.7-4.6c-0.5-1.6-1.3-3-2.4-4.3c-2.1-2.3-5-3.5-8.1-3.4c-3.1-0.1-6,1.1-8.1,3.4
	c-1,1.2-1.8,2.5-2.3,4c-0.6,1.6-0.8,3.2-0.8,4.9c0,1.6,0.2,3.1,0.7,4.6c0.5,1.6,1.3,3,2.4,4.3c2,2.3,5,3.5,8,3.4
	c1.8,0.1,3.6-0.3,5.2-1l1.7,2.5c0.4,0.4,0.6,0.9,0.8,1.5c0,0.3-0.1,0.6-0.3,0.8l0.3,0.4l4.2-4.6l-0.3-0.4c-0.2,0.1-0.4,0.2-0.6,0.2
	c-0.2,0-0.3-0.1-0.5-0.2c-0.2-0.2-0.5-0.5-0.7-0.8l-1.5-1.9C43.4,58.3,43.7,57.8,44.1,57.2L44.1,57.2L44.1,57.2z M35.9,52.9
	c-0.9,0-1.7,0.3-2.4,1v0.5c1.5,0.5,2.8,1.6,3.6,3c0.1,0.1,0.2,0.3,0.3,0.4c-0.8,0.4-1.7,0.6-2.7,0.6c-1.8,0-3.5-0.7-4.7-2
	c-3-3.6-3-8.8,0-12.5c2.5-2.6,6.6-2.7,9.2-0.2c0.1,0.1,0.2,0.2,0.2,0.2c1.5,1.7,2.3,3.9,2.2,6.2c0,1.9-0.5,3.8-1.5,5.4
	C38.4,53.7,37,52.9,35.9,52.9L35.9,52.9L35.9,52.9z M66.8,58.6c0.2,0.5,0.4,1,0.4,1.6c0,0.6-0.4,1.1-1,1.2v0.6h6.4v-0.6
	c-0.7-0.1-1-0.5-1-1c0.1-0.6,0.2-1.1,0.4-1.7l5.6-17.5c0.2-0.6,0.4-1.2,0.7-1.8c0.3-0.3,0.6-0.5,1-0.6v-0.6h-6.8v0.6
	c0.7,0.2,1,0.5,1,1c0,0.5-0.1,0.9-0.3,1.4l-3.9,12.4l-4-12.6c-0.1-0.3-0.2-0.7-0.2-1.1c0-0.5,0.3-0.9,1-1.1v-0.6h-7.1v0.6
	c0.6,0.2,1,0.5,1,1c0,0.4-0.1,0.7-0.3,1.1l-4.2,12.6l-3.9-12.6c-0.1-0.4-0.2-0.8-0.2-1.1c0-0.3,0.1-0.6,0.3-0.8
	c0.2-0.1,0.4-0.2,0.6-0.3v-0.6h-6.8v0.6c0.3,0.1,0.6,0.2,0.8,0.4c0.4,0.6,0.7,1.3,0.9,1.9l5.6,17.5c0.2,0.5,0.3,1,0.4,1.6
	c0,0.6-0.4,1.1-1,1.1v0.6h6.3v-0.6c-0.7-0.2-1.1-0.6-1.1-1.1c0.1-0.5,0.2-0.9,0.4-1.3l4.5-13.7L66.8,58.6L66.8,58.6L66.8,58.6z
	 M93.5,51.4c0.3,0,0.5,0.1,0.7,0.3c0.2,0.3,0.3,0.5,0.3,0.9H95v-6h-0.5c0,0.3-0.2,0.6-0.4,0.9c-0.2,0.2-0.4,0.3-0.7,0.2h-8V42h12.3
	c0.3,0,0.5,0.1,0.7,0.3c0.2,0.2,0.3,0.5,0.4,0.9h0.5V37h-0.5c-0.1,0.3-0.2,0.6-0.4,0.9c-0.2,0.2-0.4,0.3-0.7,0.3H80.4v0.6
	c0.3,0.1,0.5,0.2,0.7,0.5c0.1,0.2,0.2,0.5,0.2,0.8V60c0,0.3-0.1,0.6-0.2,0.8c-0.2,0.2-0.4,0.4-0.7,0.4v0.6h17.8
	c0.3,0,0.5,0.1,0.7,0.3c0.2,0.3,0.3,0.5,0.3,0.9h0.5v-6.1h-0.5c0,0.3-0.2,0.6-0.4,0.9c-0.2,0.2-0.4,0.3-0.7,0.2H85.6v-6.5L93.5,51.4
	L93.5,51.4z M120,39.9c-0.2,0.2-0.4,0.3-0.7,0.4c-0.4-0.1-0.7-0.2-1-0.4c-0.5-0.3-1.1-0.5-1.8-0.8c-1.8-0.8-3.8-1.3-5.8-1.3
	c-3,0-5.2,0.9-6.7,2.6c-1.2,1.4-1.8,3.2-1.7,5c0,1.3,0.3,2.7,1,3.8c0.7,1.2,1.9,2,3.2,2.5c1.2,0.3,2.3,0.5,3.5,0.6l2.2,0.3
	c1,0.1,2,0.3,3,0.6c0.7,0.3,1.1,0.9,1.1,1.7c0,0.5-0.2,1.1-0.4,1.5c-0.3,0.5-0.7,0.9-1.2,1.2c-1,0.5-2.1,0.8-3.3,0.8
	c-1.4,0-2.7-0.3-4-0.8c-1-0.4-1.9-0.9-2.6-1.6c-0.4-0.4-0.6-0.9-0.6-1.4v-0.2l-0.4-0.2l-2.1,5.8L102,60c0.3-0.3,0.5-0.4,0.6-0.4
	c0.3,0.1,0.7,0.3,1,0.5c2.3,1.4,5,2.2,7.7,2.3c1.4,0,2.8-0.2,4.1-0.6c1.5-0.4,2.8-1.4,3.8-2.6c0.9-1.3,1.4-2.9,1.3-4.5
	c0-1-0.2-2-0.6-3c-0.3-0.9-0.9-1.6-1.5-2.2c-0.7-0.6-1.4-1-2.2-1.3c-1.1-0.4-2.1-0.6-3.2-0.7l-2.3-0.3c-1-0.1-2-0.3-3-0.5
	c-0.8-0.2-1.4-0.9-1.3-1.8c0-0.6,0.2-1.1,0.5-1.5c0.4-0.5,0.8-0.8,1.4-1c0.9-0.3,1.8-0.5,2.7-0.5c2.2,0,4.3,0.7,6,2.1
	c0.4,0.3,0.7,0.7,0.8,1.3c0,0.1,0,0.2,0,0.3l0.4,0.3l2.3-5.6L120,39.9L120,39.9L120,39.9z M140,42c0.3,0,0.5,0.1,0.7,0.3
	c0.2,0.3,0.3,0.5,0.4,0.9h0.5V37h-0.5c0,0.3-0.2,0.6-0.4,0.9c-0.2,0.2-0.4,0.3-0.7,0.2h-16.5c-0.3,0-0.5-0.1-0.7-0.3
	c-0.2-0.3-0.3-0.6-0.4-0.9H122v6.2h0.5c0-0.3,0.2-0.6,0.4-0.9c0.2-0.2,0.4-0.3,0.7-0.2h6.1v18c0.1,0.6-0.3,1.2-0.9,1.3v0.6h6.1v-0.6
	c-0.3-0.1-0.5-0.2-0.7-0.5c-0.1-0.2-0.2-0.5-0.2-0.8V42L140,42L140,42z"/>
<path style="fill:#003C84;" d="M55.9,68.1c0-0.4-0.1-0.7-0.2-1.1c-0.2-0.3-0.4-0.6-0.8-0.8c-0.4-0.1-0.8-0.2-1.2-0.2h-3.8v0.2
	c0.1,0,0.2,0.1,0.2,0.1c0.1,0.1,0.1,0.2,0.1,0.3V73c0,0.1,0,0.2-0.1,0.3c-0.1,0.1-0.1,0.1-0.2,0.1v0.2h3.7c0.3,0,0.6,0,1-0.1
	c0.3-0.1,0.6-0.2,0.9-0.4c0.4-0.4,0.7-1,0.6-1.6c0.1-0.8-0.4-1.5-1.1-1.8C55.6,69.4,55.9,68.7,55.9,68.1z M50.9,66.8h2.4
	c0.3,0,0.5,0,0.7,0c0.2,0,0.4,0.1,0.6,0.2c0.2,0.1,0.3,0.3,0.4,0.4c0.1,0.2,0.2,0.4,0.2,0.7c0.1,0.6-0.3,1.1-0.9,1.2
	c-0.3,0.1-0.6,0.1-0.9,0.1h-2.4L50.9,66.8L50.9,66.8L50.9,66.8z M50.9,70h2.5c0.2,0,0.5,0,0.7,0c0.2,0,0.4,0.1,0.6,0.2
	c0.2,0.1,0.3,0.3,0.4,0.5c0.1,0.2,0.2,0.5,0.2,0.7c0.1,0.6-0.3,1.2-0.9,1.3c-0.3,0.1-0.6,0.1-0.9,0.1h-2.5L50.9,70L50.9,70L50.9,70z
	 M58.4,66.4c0.1-0.1,0.1-0.1,0.2-0.1V66h-1.3v0.2c0.1,0,0.2,0.1,0.2,0.1c0.1,0.1,0.1,0.2,0.1,0.3v4.4c0,0.3,0,0.6,0.1,0.9
	c0.1,0.4,0.2,0.7,0.4,1c0.6,0.6,1.5,0.9,2.4,0.8c0.5,0,1.1-0.1,1.6-0.2c0.6-0.2,1-0.7,1.2-1.2c0.1-0.4,0.1-0.8,0.1-1.2v-4.4
	c0-0.1,0-0.2,0.1-0.3c0.1-0.1,0.1-0.1,0.2-0.1V66h-1.3v0.2c0.1,0,0.2,0.1,0.2,0.1c0.1,0.1,0.1,0.2,0.1,0.3v4.2c0,0.4,0,0.6,0,0.8
	c0,0.3-0.1,0.5-0.2,0.7c-0.5,0.5-1.2,0.7-1.9,0.6c-1.3,0-2-0.4-2.1-1.1c-0.1-0.3-0.1-0.7-0.1-1v-4.2C58.4,66.6,58.4,66.5,58.4,66.4
	L58.4,66.4L58.4,66.4z M70.3,72.8c0.1,0.1,0.2,0.3,0.2,0.4c0,0.1-0.1,0.2-0.2,0.2v0.2h1.5v-0.2c-0.1,0-0.2-0.1-0.2-0.1
	c-0.1-0.1-0.1-0.2-0.1-0.3v-6.3c0-0.1,0-0.2,0.1-0.3c0.1-0.1,0.1-0.1,0.2-0.1V66h-1.3v0.2c0.1,0,0.2,0.1,0.2,0.1
	c0.1,0.1,0.1,0.2,0.1,0.3v5.6L67,66.9c-0.1-0.1-0.2-0.3-0.2-0.4c0-0.1,0.1-0.2,0.2-0.3V66h-1.8v0.2c0.1,0,0.2,0.1,0.2,0.1
	c0.1,0.1,0.1,0.2,0.1,0.3V73c0,0.1,0,0.2-0.1,0.3c-0.1,0.1-0.1,0.1-0.2,0.1v0.2h1.3v-0.2c-0.1,0-0.2-0.1-0.2-0.1
	c-0.1-0.1-0.1-0.2-0.1-0.3v-6L70.3,72.8L70.3,72.8L70.3,72.8z M79.3,68.1c0-0.4-0.1-0.7-0.2-1.1c-0.2-0.3-0.4-0.6-0.8-0.8
	c-0.4-0.1-0.8-0.2-1.2-0.2h-3.8v0.2c0.1,0,0.2,0.1,0.2,0.1c0.1,0.1,0.1,0.2,0.1,0.3V73c0,0.1,0,0.2-0.1,0.3
	c-0.1,0.1-0.1,0.1-0.2,0.1v0.2H77c0.3,0,0.6,0,1-0.1c0.3-0.1,0.6-0.2,0.9-0.4c0.4-0.4,0.7-1,0.6-1.6c0.1-0.8-0.4-1.5-1.1-1.8
	C78.9,69.4,79.3,68.7,79.3,68.1L79.3,68.1L79.3,68.1z M74.3,66.8h2.4c0.3,0,0.5,0,0.7,0c0.2,0,0.4,0.1,0.6,0.2
	c0.2,0.1,0.3,0.3,0.4,0.4c0.1,0.2,0.2,0.4,0.2,0.7c0.1,0.6-0.3,1.1-0.9,1.2c-0.3,0.1-0.6,0.1-0.9,0.1h-2.4L74.3,66.8L74.3,66.8
	L74.3,66.8z M74.3,70h2.5c0.2,0,0.5,0,0.7,0c0.2,0,0.4,0.1,0.6,0.2c0.2,0.1,0.3,0.3,0.4,0.5c0.1,0.2,0.2,0.5,0.2,0.7
	c0.1,0.6-0.3,1.2-0.9,1.3c-0.3,0.1-0.6,0.1-0.9,0.1h-2.5L74.3,70L74.3,70L74.3,70z M81.8,66.4c0.1-0.1,0.1-0.1,0.2-0.1V66h-1.3v0.2
	c0.1,0,0.2,0.1,0.2,0.1c0.1,0.1,0.1,0.2,0.1,0.3v4.4c0,0.3,0,0.6,0.1,0.9c0.1,0.4,0.2,0.7,0.4,1c0.6,0.6,1.5,0.9,2.4,0.8
	c0.5,0,1.1-0.1,1.6-0.2c0.6-0.2,1-0.7,1.2-1.2c0.1-0.4,0.1-0.8,0.1-1.2v-4.4c0-0.1,0-0.2,0.1-0.3c0.1-0.1,0.1-0.1,0.2-0.1V66h-1.3
	v0.2c0.1,0,0.2,0.1,0.2,0.1c0.1,0.1,0.1,0.2,0.1,0.3v4.2c0,0.4,0,0.6,0,0.8c0,0.3-0.1,0.5-0.2,0.7c-0.5,0.5-1.2,0.7-1.9,0.6
	c-1.3,0-2-0.4-2.1-1.1c-0.1-0.3-0.1-0.7-0.1-1v-4.2C81.7,66.6,81.8,66.5,81.8,66.4L81.8,66.4L81.8,66.4z M92,70.2l1.4,2.7
	c0.1,0.1,0.1,0.2,0.2,0.4c0,0.1-0.1,0.1-0.2,0.2v0.2h1.5v-0.2c-0.2,0-0.3-0.1-0.4-0.3l-1.6-3c0.4,0,0.7-0.2,1-0.4
	c0.2-0.2,0.4-0.4,0.6-0.7c0.1-0.3,0.2-0.6,0.2-1c0-0.4-0.1-0.8-0.3-1.2c-0.2-0.3-0.5-0.6-0.9-0.7C92.9,66.1,92.5,66,92,66h-3.5v0.2
	c0.1,0,0.2,0.1,0.2,0.1c0.1,0.1,0.1,0.2,0.1,0.3V73c0,0.1,0,0.2-0.1,0.3c-0.1,0.1-0.1,0.1-0.2,0.1v0.2h1.3v-0.2
	c-0.1,0-0.2-0.1-0.2-0.1c-0.1-0.1-0.1-0.2-0.1-0.3v-2.8L92,70.2L92,70.2z M89.5,66.8H92c0.2,0,0.5,0,0.7,0c0.2,0,0.4,0.1,0.6,0.2
	c0.3,0.3,0.5,0.7,0.5,1.1c0.1,0.6-0.3,1.1-0.8,1.3c-0.3,0.1-0.6,0.1-0.9,0.1h-2.6L89.5,66.8L89.5,66.8L89.5,66.8z M100.6,67.1
	c0.1-0.2,0.3-0.4,0.4-0.6c0.1-0.1,0.2-0.2,0.4-0.2V66h-1.5v0.2c0.1,0,0.2,0.1,0.2,0.2c0,0.2-0.1,0.3-0.2,0.5l-1.6,2.7L96.7,67
	c-0.1-0.2-0.2-0.3-0.2-0.5c0-0.1,0-0.1,0.1-0.2c0,0,0.1,0,0.1,0V66h-1.6v0.2c0.1,0,0.3,0.1,0.4,0.2c0,0,0.2,0.2,0.4,0.6l2,3.2V73
	c0,0.1,0,0.2-0.1,0.3c-0.1,0.1-0.1,0.1-0.2,0.1v0.2H99v-0.2c-0.1,0-0.2-0.1-0.2-0.1c-0.1-0.1-0.1-0.2-0.1-0.3v-2.7L100.6,67.1
	L100.6,67.1L100.6,67.1z M110.8,72.8c0,0.1,0.1,0.3,0.1,0.4c0,0.1-0.1,0.2-0.3,0.3v0.2h1.5v-0.2c-0.2-0.1-0.3-0.2-0.3-0.3
	c0-0.1,0-0.3,0.1-0.4l1.6-5.6c0.1-0.3,0.2-0.5,0.3-0.7c0.1-0.1,0.2-0.2,0.3-0.2V66h-1.4v0.2c0.2,0,0.3,0.1,0.3,0.3
	c0,0.2-0.1,0.4-0.1,0.5l-1.5,5.4l-1.5-5.4c-0.1-0.2-0.1-0.3-0.1-0.5c0-0.1,0.1-0.2,0.3-0.3V66h-1.6v0.2c0.2,0,0.3,0.1,0.3,0.3
	c0,0.2-0.1,0.4-0.1,0.5l-1.6,5.4l-1.6-5.4c-0.1-0.2-0.1-0.3-0.1-0.5c0-0.2,0.1-0.3,0.3-0.3V66h-1.5v0.2c0.1,0,0.2,0.1,0.3,0.2
	c0.1,0.2,0.2,0.5,0.3,0.8l1.7,5.6c0.1,0.1,0.1,0.3,0.1,0.5c0,0.1-0.1,0.2-0.3,0.3v0.2h1.5v-0.2c-0.2-0.1-0.3-0.2-0.3-0.3
	c0-0.2,0-0.3,0.1-0.5l1.6-5.6L110.8,72.8L110.8,72.8L110.8,72.8z M119.5,72.9c0,0.1,0.1,0.2,0.1,0.3c0,0.1-0.1,0.2-0.3,0.2v0.2h1.5
	v-0.2c-0.1,0-0.1,0-0.2-0.1c-0.1-0.1-0.2-0.2-0.3-0.3c0-0.1-0.1-0.3-0.2-0.6l-2.2-5.8c0-0.1-0.1-0.2-0.1-0.3c0-0.1,0.1-0.2,0.2-0.2
	V66h-1.5v0.2c0.2,0,0.2,0.1,0.2,0.2c0,0.1,0,0.2-0.1,0.3l-2.3,6c-0.1,0.2-0.1,0.3-0.2,0.5c-0.1,0.1-0.2,0.2-0.3,0.2v0.2h1.4v-0.2
	c-0.2,0-0.3-0.1-0.3-0.2c0-0.1,0-0.2,0.1-0.3l0.6-1.4h3.4L119.5,72.9L119.5,72.9L119.5,72.9z M115.9,70.8l1.4-3.8l1.4,3.8H115.9z
	 M125.9,66.8c0.1,0,0.2,0,0.3,0.1c0.1,0.1,0.1,0.2,0.1,0.3h0.1v-1.4h-0.1c0,0.1-0.1,0.2-0.1,0.3c-0.1,0.1-0.2,0.1-0.3,0.1h-5
	c-0.1,0-0.2,0-0.3-0.1c-0.1-0.1-0.1-0.2-0.1-0.3h-0.2v1.4h0.1c0-0.1,0.1-0.2,0.1-0.3c0.1-0.1,0.2-0.1,0.3-0.1h2.1V73
	c0,0.1,0,0.2-0.1,0.3c-0.1,0.1-0.1,0.1-0.2,0.1v0.2h1.3v-0.2c-0.1,0-0.2-0.1-0.2-0.1c-0.1-0.1-0.1-0.2-0.1-0.3v-6.2L125.9,66.8
	L125.9,66.8z M131.1,70.1c0.1,0,0.2,0,0.3,0.1c0.1,0.1,0.1,0.2,0.1,0.3h0.1V69h-0.1c0,0.1-0.1,0.2-0.1,0.3c-0.1,0.1-0.2,0.1-0.3,0.1
	h-2.6v-2.6h4c0.1,0,0.2,0,0.3,0.1c0.1,0.1,0.1,0.2,0.1,0.3h0.1v-1.4h-0.1c0,0.1-0.1,0.2-0.1,0.3c-0.1,0.1-0.2,0.1-0.3,0.1h-5v0.2
	c0.1,0,0.2,0.1,0.2,0.1c0.1,0.1,0.1,0.2,0.1,0.3V73c0,0.1,0,0.2-0.1,0.3c-0.1,0.1-0.1,0.1-0.2,0.1v0.2h5.1c0.1,0,0.2,0,0.3,0.1
	c0.1,0.1,0.1,0.2,0.1,0.3h0.1v-1.4h-0.1c0,0.1-0.1,0.2-0.1,0.3c0,0.1-0.1,0.1-0.3,0.1h-4v-2.8L131.1,70.1L131.1,70.1z M137.9,70.2
	l1.4,2.7c0.1,0.1,0.1,0.2,0.2,0.4c0,0.1-0.1,0.1-0.2,0.2v0.2h1.5v-0.2c-0.2,0-0.3-0.1-0.4-0.3l-1.6-3c0.4,0,0.7-0.2,1-0.4
	c0.2-0.2,0.4-0.4,0.6-0.7c0.1-0.3,0.2-0.6,0.2-1c0-0.4-0.1-0.8-0.3-1.2c-0.2-0.3-0.5-0.6-0.9-0.7c-0.4-0.1-0.9-0.2-1.4-0.2h-3.5v0.2
	c0.1,0,0.2,0.1,0.2,0.1c0.1,0.1,0.1,0.2,0.1,0.3V73c0,0.1,0,0.2-0.1,0.3c-0.1,0.1-0.1,0.1-0.2,0.1v0.2h1.3v-0.2
	c-0.1,0-0.2-0.1-0.2-0.1c-0.1-0.1-0.1-0.2-0.1-0.3v-2.8L137.9,70.2L137.9,70.2z M135.5,66.8h2.5c0.2,0,0.5,0,0.7,0
	c0.2,0,0.4,0.1,0.6,0.2c0.3,0.3,0.5,0.7,0.5,1.1c0.1,0.6-0.3,1.1-0.8,1.3c-0.3,0.1-0.6,0.1-0.9,0.1h-2.6L135.5,66.8L135.5,66.8
	L135.5,66.8z"/>
</svg>
