<svg xmlns="http://www.w3.org/2000/svg" viewBox="0 0 127.23 42">
  <defs>
    <style>
      .cls-1, .cls-3 {
        fill: #fff;
      }

      .cls-2 {
        fill: #1b449c;
      }

      .cls-3, .cls-4 {
        fill-rule: evenodd;
      }

      .cls-4 {
        fill: #fdb913;
      }
    </style>
  </defs>
  <g id="Layer_2" data-name="Layer 2">
    <g id="Layer_1-2" data-name="Layer 1">
      <rect class="cls-1" width="127.23" height="42"/>
      <rect class="cls-2" x="1" y="1" width="125.23" height="40"/>
      <path id="Combined-Shape" class="cls-3" d="M83.59,10.23c7.59,0,11.76,3.13,12.5,8.51H87.81c-.15-.78-.93-3.16-4.45-3.16-4,0-5.26,3-5.26,5.9s1.28,5.89,5.26,5.89c2.87,0,4-1.57,4.49-3.58H96.2c0,4.33-4.52,8.92-12.61,8.92-8.93,0-14-4.89-14-11.23C69.59,14.71,75.09,10.23,83.59,10.23Zm-53,.51c7.28,0,8.83,3.19,8.83,5.39s-1.36,3.33-3.41,4.2c2.48.67,4.8,2.2,4.8,5.35,0,4.3-4.8,6.52-9.68,6.52H15.51V10.74ZM29.35,23.1H24v4h5c1.78,0,3.33-.4,3.33-2.05C32.34,23.79,31.37,23.1,29.35,23.1Zm25.7-12.87c7,0,11.49,3,12.72,8H59.61c-.31-1.56-2-2.68-4-2.68-4.16,0-5.26,2.43-5.55,4.35H41.56C42.55,13.05,49.29,10.23,55.05,10.23ZM28.51,15.85H24V19.1h4.49c1.78,0,2.9-.39,2.9-1.77C31.41,16.24,30.25,15.85,28.51,15.85Z"/>
      <path id="Combined-Shape-2" data-name="Combined-Shape" class="cls-4" d="M123.68,3.3V38.65H109.51V3.3ZM68.12,20.4V32.2H62.75L62.47,30c-1.89,1.89-4.83,2.7-7.85,2.7-7.65,0-12.55-4.32-13.13-9.89H50c.33,2,1.74,4.55,6.15,4.55,2,0,4-.79,4.41-2.38H56.82V20.4Z"/>
    </g>
  </g>
</svg>
