<svg xmlns="http://www.w3.org/2000/svg" fill="none" viewBox="0 0 144 26"><path fill="#49A842" d="M30.657.188H.635A.637.637 0 0 0 0 .824V24.66c0 .512.575.814.994.525L30.88 4.605a.955.955 0 0 0 .413-.785V.824a.637.637 0 0 0-.636-.636Z"></path><path fill="#2282F4" d="m30.298 10.19-12.39 8.533c-3.167 2.182-1.623 7.145 2.221 7.145h10.528c.35 0 .636-.286.636-.636V10.714a.635.635 0 0 0-.994-.524Z"></path><path fill="#003974" d="M55.148 19.501c1.712 0 2.332-.686 2.332-1.725v-.035c0-1.064-.62-1.719-2.332-1.719H47.81a.476.476 0 0 0-.476.477v2.526c0 .263.213.476.476.476h7.34Zm-.953-9.737c1.662 0 2.246-.584 2.246-1.589v-.034c0-1.014-.584-1.595-2.246-1.595h-6.389a.476.476 0 0 0-.476.476v2.265c0 .264.213.477.476.477h6.39ZM37.647.824c0-.35.285-.636.635-.636h17.905c7.37 0 9.852 2.854 9.852 6.516v.035c0 2.354-1.22 4.388-2.907 5.344v.025c2.91.87 4.333 3.098 4.333 5.868v.035c0 5.223-3.79 7.86-10.858 7.86H38.282a.637.637 0 0 1-.635-.636V.824ZM69.724.188H82.97c.27 0 .511.172.6.426l5.519 15.688h.034L94.628.614a.637.637 0 0 1 .6-.426h13.252c.349 0 .635.286.635.636v24.408c0 .35-.286.636-.635.636h-8.067a.637.637 0 0 1-.635-.636V13.706l.089-4.943h-.026l-6.14 16.685a.635.635 0 0 1-.598.416h-8.015a.635.635 0 0 1-.597-.416L78.34 8.763h-.026l.098 4.943v11.526c0 .35-.286.636-.635.636H69.72a.637.637 0 0 1-.635-.636V.824c0-.35.286-.636.635-.636h.003ZM126.388 19.123c3.961 0 6.76-1.515 6.76-6.084v-.034c0-4.553-2.799-6.078-6.76-6.078h-4.334a.476.476 0 0 0-.476.477v11.243c0 .264.213.476.476.476h4.334ZM111.895.823c0-.349.286-.635.635-.635h13.804c9.416 0 16.853 3.32 16.853 12.816v.035c0 9.324-7.437 12.832-16.853 12.832H112.53a.637.637 0 0 1-.635-.636V.824Z"></path></svg>