<svg xmlns="http://www.w3.org/2000/svg" xmlns:xlink="http://www.w3.org/1999/xlink" width="264.447" height="146.827" viewBox="0 0 264.447 146.827">
  <defs>
    <clipPath id="clip-path">
      <path id="Path_337" data-name="Path 337" d="M84,748H254.536v63.725H84Zm0,0" transform="translate(-84 -748)"/>
    </clipPath>
    <clipPath id="clip-path-2">
      <path id="Path_339" data-name="Path 339" d="M93,710.668h97.264v61.86H93Zm0,0" transform="translate(-93 -710.668)"/>
    </clipPath>
  </defs>
  <g id="Group_168" data-name="Group 168" transform="translate(-84.886 -41.673)">
    <g id="Group_148" data-name="Group 148" transform="translate(178.797 83.41)" clip-path="url(#clip-path)">
      <path id="Path_336" data-name="Path 336" d="M250.206,757.4q-1.3,1.454-2.642,3.271h0c-.612.834-1.241,1.69-1.874,2.563,1.139,1.07,2.223,2.126,3.24,3.148a4.376,4.376,0,0,1-3.7,7.4,12.063,12.063,0,0,1-3.294-.917c-.838-.353-1.712-.7-2.594-1.048-7.407,9.634-16.014,18.813-25.966,19.849a31.692,31.692,0,0,1-6.735-.249c-8.271-1.839-16.7-10.673-25.888-19.823-17.211,11.486-17.979,19.906-36.74,6.621-13.141-9.3-5.044-19.687,9.079-27.451a27.534,27.534,0,0,0-15.543-1.406,72.588,72.588,0,0,0-7.817,16.4c-1.677,4.873-2.449,11.049-5.934,13.84a11.165,11.165,0,0,1-8.346,3.51c-7.363-.122-15.255-7-19.006-15.158-13.241,10.346-18.63,23.858,2.533,38.326,14.407,9.848,20.722-10.786,32.338-16.337,20.312-9.7,38.234,10.992,51,16.4,34.373,14.546,71.621-8.158,72.093-37.156,0,0,.568-10.3-3.228-12.066a.865.865,0,0,0-.978.284" transform="translate(-83.907 -747.906)" fill="#31b8e6"/>
    </g>
    <g id="Group_149" data-name="Group 149" transform="translate(188.859 41.673)" clip-path="url(#clip-path-2)">
      <path id="Path_338" data-name="Path 338" d="M136.963,753.234q1.244-1.821,2.616-3.48c4.28-5.18,6.637-7.166,8.149-7.2,2.475-.044,4.9,7.966,5.934,11.875,10.983-5.722,25.081-9.866,35.75-10.853-9.075-13.882-22.2-30.718-39.388-32.709a25.494,25.494,0,0,0-2.821-.2c-13.7-.236-26.8,10.066-36.859,22.11-7.651,9.438-16.8,20.067-17.115,30.648a22.294,22.294,0,0,0,1.721,7.883c.153.385.332.76.5,1.136,11.883-9.276,30.072-16.006,41.1-18.591.135-.206.267-.419.407-.625" transform="translate(-92.973 -710.668)" fill="#fbdc04"/>
    </g>
    <path id="Path_340" data-name="Path 340" d="M114.221,783.049a11.181,11.181,0,0,0,8.35-3.51c3.48-2.791,4.257-8.966,5.93-13.84a72.79,72.79,0,0,1,7.821-16.4c-11.031,2.585-29.224,9.315-41.107,18.591,3.751,8.158,11.643,15.036,19.006,15.158" transform="translate(96.12 -664.437)" fill="#41b33c"/>
    <path id="Path_341" data-name="Path 341" d="M225.629,771.345a12.066,12.066,0,0,0,3.294.917,4.376,4.376,0,0,0,3.7-7.4c-1.017-1.022-2.1-2.078-3.24-3.148-2.009,2.765-4.123,5.7-6.346,8.586.882.344,1.755.694,2.594,1.048" transform="translate(111.201 -662.973)" fill="#2c6ebf"/>
    <path id="Path_342" data-name="Path 342" d="M186.982,739.911c-1.2.022-2.467.1-3.782.218-10.669.987-24.767,5.132-35.75,10.853-.528.275-1.052.55-1.563.834.663.248,1.323.511,1.978.8.215.092.424.192.638.288,9.114,4.2,17.35,12.075,25.045,19.744.2-.131.38-.257.577-.388,16.254-10.678,40.762-6.11,58.012.612,2.223-2.891,4.337-5.821,6.346-8.586-12.128-11.416-30.836-24.749-51.5-24.373" transform="translate(102.099 -665.546)" fill="#eb6819"/>
    <path id="Path_343" data-name="Path 343" d="M150.163,751.646c-.215-.1-.424-.2-.638-.288-.655-.287-1.315-.55-1.978-.8-14.123,7.764-22.22,18.149-9.079,27.451,18.761,13.285,19.529,4.865,36.74-6.621-7.7-7.668-15.931-15.542-25.045-19.744" transform="translate(100.439 -664.288)" fill="#e5441e"/>
    <g id="Group_167" data-name="Group 167">
      <path id="Path_344" data-name="Path 344" d="M19.277,797.6a11.006,11.006,0,0,1-7.992,3.462c-7.4,0-11.254-5.441-11.285-11.677-.061-6.171,3.76-11.945,11.285-11.945a11.007,11.007,0,0,1,7.992,3.464l-1.157,1.056a9.369,9.369,0,0,0-6.834-2.935c-6.394,0-9.686,4.751-9.656,10.293.066,5.407,3.323,10.093,9.656,10.093a9.555,9.555,0,0,0,6.865-2.935l1.127,1.122" transform="translate(84.887 -661.116)" fill="#333"/>
      <path id="Path_345" data-name="Path 345" d="M19.819,784.392v16.364h1.537V784.392Zm2.035-5.244a1.237,1.237,0,1,1-2.472,0,1.237,1.237,0,1,1,2.472,0" transform="translate(87.173 -661.067)" fill="#333"/>
      <path id="Path_346" data-name="Path 346" d="M27.366,779.363v4.918h5.262v1.349H27.366v9.931c0,2.214.437,3.764,2.847,3.764a5.558,5.558,0,0,0,2.384-.66l.533,1.315a6.468,6.468,0,0,1-2.917.825c-3.289,0-4.354-2.044-4.354-5.245V785.63H22.566v-1.349h3.293V779.53l1.507-.167" transform="translate(87.549 -660.89)" fill="#333"/>
      <path id="Path_347" data-name="Path 347" d="M47.693,783.762,38.26,806.855H36.631l2.852-7-6.206-16.1h1.66l3.607,9.634,1.817,4.717,1.786-4.751,3.887-9.6h1.66" transform="translate(88.813 -660.371)" fill="#333"/>
      <path id="Path_348" data-name="Path 348" d="M66.869,791.973c0-4.223-2.852-6.961-6.363-6.961s-6.363,2.738-6.363,6.961,2.852,6.765,6.363,6.765S66.869,796.2,66.869,791.973Zm-14.228,0c0-5.18,3.507-8.477,7.865-8.477s7.865,3.3,7.865,8.477-3.507,8.346-7.865,8.346-7.865-3.166-7.865-8.346" transform="translate(91.097 -660.402)" fill="#333"/>
      <path id="Path_349" data-name="Path 349" d="M70.451,800.788V786.039H67.285v-1.419h3.166v-1.45c0-3.235,1.223-5.577,4.638-5.577a4.913,4.913,0,0,1,3.074,1.122l-.756,1.187a4.087,4.087,0,0,0-2.38-.825c-1.943,0-3.07,1.253-3.07,4.092v1.45h5.105v1.419H71.958v14.748H70.451" transform="translate(92.825 -661.099)" fill="#333"/>
      <path id="Path_350" data-name="Path 350" d="M24.8,845.963,4.814,827.005v18.9H.5V804.527h4.31v17.464l18.351-17.464h5.791L8.107,824.385,30.7,845.963H24.8" transform="translate(84.946 -657.921)" fill="#333"/>
      <path id="Path_351" data-name="Path 351" d="M40.29,818.768c-6.258,0-10.8,4.7-10.8,11.171,0,6.511,4.537,11.237,10.8,11.237a10.631,10.631,0,0,0,8.276-3.489,11.658,11.658,0,0,0,2.756-7.717C51.322,824.571,47.867,818.768,40.29,818.768Zm0,26.443c-8.45,0-14.818-6.564-14.818-15.272,0-8.639,6.367-15.15,14.818-15.15a13.646,13.646,0,0,1,10.219,4.346l.572.637v-4.637h4.027v29.618H51.081v-4.639l-.572.629A13.417,13.417,0,0,1,40.29,845.21" transform="translate(87.892 -656.71)" fill="#333"/>
      <path id="Path_352" data-name="Path 352" d="M107.7,818.768c-6.254,0-10.792,4.7-10.792,11.171,0,6.511,4.538,11.237,10.792,11.237a10.618,10.618,0,0,0,8.275-3.489,11.649,11.649,0,0,0,2.756-7.717C118.736,824.571,115.286,818.768,107.7,818.768Zm0,26.443c-8.446,0-14.818-6.564-14.818-15.272,0-8.639,6.372-15.15,14.818-15.15a13.655,13.655,0,0,1,10.223,4.346l.568.637v-4.637h4.027v29.618H118.5v-4.639l-.568.629A13.418,13.418,0,0,1,107.7,845.21" transform="translate(95.846 -656.71)" fill="#333"/>
      <path id="Path_353" data-name="Path 353" d="M136.526,846.022c-5.712,0-8.49-3.192-8.49-9.755V819.641H122.1v-3.633h5.934v-8.2l3.97-.419v8.621h9.5v3.633h-9.5v16.626c0,4.406,1.139,5.9,4.52,5.9a9.638,9.638,0,0,0,4.022-1.087l.594-.288,1.455,3.476-.542.266a12.6,12.6,0,0,1-5.528,1.494" transform="translate(99.292 -657.584)" fill="#333"/>
      <path id="Path_354" data-name="Path 354" d="M166.24,845.963V829.083c0-4.179-1.45-9.162-8.363-9.162-5.4,0-9.319,4.144-9.319,9.852v16.19h-4.027V804.527h3.913v15.631l.563-.6a12.089,12.089,0,0,1,8.861-3.617c7.725,0,12.341,4.914,12.341,13.141v16.879h-3.97" transform="translate(101.939 -657.921)" fill="#333"/>
      <path id="Path_355" data-name="Path 355" d="M184.951,818.768c-6.258,0-10.8,4.7-10.8,11.171,0,6.511,4.538,11.237,10.8,11.237a10.625,10.625,0,0,0,8.275-3.489,11.657,11.657,0,0,0,2.756-7.717C195.982,824.571,192.527,818.768,184.951,818.768Zm0,26.443c-8.451,0-14.818-6.564-14.818-15.272,0-8.639,6.367-15.15,14.818-15.15a13.645,13.645,0,0,1,10.218,4.346l.572.637v-4.637h4.027v29.618h-4.027v-4.639l-.568.629a13.425,13.425,0,0,1-10.223,4.467" transform="translate(104.959 -656.71)" fill="#333"/>
      <path id="Path_356" data-name="Path 356" d="M76.566,844.747V815.129h3.843l.074,3.476.546-.577a11.039,11.039,0,0,1,8.149-3.187l.288,0a11.365,11.365,0,0,1,6.027,1.76l.437.266-2.092,3.271-.236-.149a8.236,8.236,0,0,0-4.424-1.222,8.676,8.676,0,0,0-8.586,8.821v17.163H76.566" transform="translate(93.92 -656.705)" fill="#333"/>
      <path id="Path_357" data-name="Path 357" d="M56.18,844.747V815.129h3.847L60.1,818.6l.546-.577a11.039,11.039,0,0,1,8.149-3.187l.288,0a11.365,11.365,0,0,1,6.027,1.76l.437.266-2.092,3.271-.24-.149a8.221,8.221,0,0,0-4.42-1.222,8.679,8.679,0,0,0-8.59,8.821v17.163H56.18" transform="translate(91.515 -656.705)" fill="#333"/>
    </g>
  </g>
</svg>
