<svg width="223" height="52" viewBox="0 0 223 52" fill="none" xmlns="http://www.w3.org/2000/svg">
<path d="M0 52C0 52 1.63086 50.3692 6.77355 50.3692H31.3146C40.3599 50.3692 48.483 45.1119 48.483 33.4353C48.483 26.964 44.9242 22.9155 39.6513 20.1435C33.1852 16.7463 24.8589 16.0586 21.1751 18.0437L21.2585 18.299C21.2585 18.299 26.1459 16.7151 29.7463 19.4558C31.9242 21.1127 33.305 23.1708 33.305 26.7868C33.305 28.2874 32.8621 31.4137 30.2621 33.6906C27.8601 35.7904 24.1763 35.6602 21.1751 35.6602H3.47535L0.00521054 51.9948L0 52Z" fill="#002A42"/>
<path d="M49.6032 0C49.6032 0 47.9723 1.63086 42.8296 1.63086H18.2886C9.24328 1.63086 1.12024 6.88818 1.12024 18.5647C1.12024 25.0361 4.67896 29.0846 9.9519 31.8565C16.418 35.2537 24.7443 35.9415 28.428 33.9563L28.3447 33.701C28.3447 33.701 23.4573 35.285 19.8569 32.5443C17.679 30.8874 16.2982 28.8293 16.2982 25.2132C16.2982 23.7126 16.7411 20.5864 19.3411 18.3094C21.7431 16.2096 25.4268 16.3399 28.428 16.3399H46.1331L49.6032 0.00521054V0Z" fill="#002A42"/>
<path d="M74.1025 22.6496C73.7482 24.5775 72.2268 30.2621 64.1402 30.2621C58.5026 30.2621 55.7827 26.719 55.7827 21.6701C55.7827 15.5635 59.7009 10.4885 66.3182 10.4885C70.648 10.4885 74.5142 12.3122 74.6184 17.9707H68.9547C69.0068 16.1991 68.1366 15.1935 66.2869 15.1935C62.9679 15.1935 61.7695 18.8929 61.7695 21.5607C61.7695 23.1186 62.1499 25.5519 64.901 25.5519C66.7767 25.5519 67.8396 24.3118 68.22 22.6444H74.1025V22.6496Z" fill="#002A42"/>
<path d="M78.0781 16.095H83.4657L80.527 29.814H75.1394L78.0781 16.095ZM83.7627 14.6152H78.3751L79.1671 10.9419H84.5546L83.7627 14.6152Z" fill="#002A42"/>
<path d="M92.7194 16.095H95.632L94.8713 19.3203H92.0108L91.0573 23.7335C90.9478 24.1816 90.8124 24.6609 90.8124 25.109C90.8124 25.5571 91.0573 25.9271 91.9014 25.9271C92.7454 25.9271 93.2352 25.875 93.6729 25.8489L92.8549 29.6265C91.9014 29.7828 90.9218 29.9182 89.9422 29.9704C88.8012 29.9704 87.5767 29.9704 86.5398 29.4128C85.6124 28.9126 85.0705 27.8289 85.0705 26.8233C85.0705 26.0834 85.232 25.5832 85.3675 24.9475L86.618 19.3203H84.2212L84.9819 16.095H87.3214L88.2749 11.9475H93.6625L92.709 16.095H92.7194Z" fill="#002A42"/>
<path d="M103.172 30.6581C101.973 32.9298 101.129 34.2533 96.2573 34.2533C95.4132 34.2533 94.5952 34.2012 93.7511 34.123L94.5691 30.0016C95.0068 30.0276 95.4653 30.0797 95.903 30.0797C97.0441 30.0797 97.8621 30.0276 97.8621 28.7042L95.3559 16.095H100.801L101.728 24.317H101.786L105.407 16.095H111.013L103.172 30.6581Z" fill="#002A42"/>
<path d="M134.34 16.6525C134.366 15.8865 134.095 15.4124 133.658 15.0945C133.225 14.7767 132.595 14.6725 131.917 14.6725C130.912 14.6725 129.604 14.9643 129.604 16.2044C129.604 17.632 132.517 17.7102 134.424 18.3719C137.8 19.5338 138.941 21.3314 138.941 23.5771C138.941 28.1258 134.397 30.2621 130.177 30.2621C125.712 30.2621 121.684 28.2769 121.929 23.4677H127.728C127.728 24.4993 127.973 25.135 128.463 25.6092C128.979 26.0312 129.687 26.0833 130.667 26.0833C131.839 26.0833 133.282 25.4997 133.282 24.2597C133.282 22.8841 131.297 22.7017 128.598 21.8264C126.228 21.0605 123.94 19.8464 123.94 16.6993C123.94 12.4424 128.187 10.4885 132.105 10.4885C136.242 10.4885 139.973 11.9943 139.863 16.6472H134.335L134.34 16.6525Z" fill="#002A42"/>
<path d="M148.768 16.095H151.68L150.92 19.3203H148.059L147.106 23.7335C146.996 24.1816 146.861 24.6609 146.861 25.109C146.861 25.5571 147.106 25.9271 147.95 25.9271C148.794 25.9271 149.284 25.875 149.721 25.8489L148.903 29.6265C147.95 29.7828 146.97 29.9182 145.991 29.9704C144.844 29.9704 143.62 29.9704 142.588 29.4128C141.661 28.9126 141.119 27.8289 141.119 26.8233C141.119 26.0834 141.28 25.5832 141.416 24.9475L142.666 19.3203H140.27L141.03 16.095H143.37L144.323 11.9475H149.716L148.763 16.095H148.768Z" fill="#002A42"/>
<path d="M153.64 16.095H159.027L156.089 29.814H150.701L153.64 16.095ZM159.329 14.6152H153.942L154.729 10.9419H160.116L159.329 14.6152Z" fill="#002A42"/>
<path d="M161.914 16.095H167.14L166.676 18.2365H166.728C167.682 16.7828 169.448 15.7511 170.839 15.7511C171.735 15.7511 172.256 15.8032 172.746 15.9647L171.741 20.5916C171.089 20.3519 170.355 20.2477 169.672 20.2477C167.385 20.2477 166.244 21.2012 165.613 24.0826L164.389 29.8192H158.996L161.908 16.1002L161.914 16.095Z" fill="#002A42"/>
<path d="M175.117 10.9419H180.505L176.477 29.814H171.084L175.112 10.9419H175.117Z" fill="#002A42"/>
<path d="M182.469 16.095H187.856L184.918 29.814H179.53L182.469 16.095ZM188.159 14.6152H182.766L183.558 10.9419H188.945L188.159 14.6152Z" fill="#002A42"/>
<path d="M190.769 16.095H195.969L195.563 17.8405H195.62C196.657 16.6004 198.288 15.7511 200.002 15.7511C202.477 15.7511 204.603 16.7567 204.603 19.4505C204.603 20.0601 204.441 21.0657 204.222 22.0661L202.508 29.8088H197.121L198.507 23.5198C198.668 22.7279 198.944 21.8004 198.944 21.2481C198.944 20.378 198.288 19.9246 197.418 19.9246C195.703 19.9246 195.13 21.1126 194.802 22.5403L193.223 29.8088H187.836L190.774 16.0898L190.769 16.095Z" fill="#002A42"/>
<path d="M214.075 19.5599C216.008 19.5599 216.092 20.8573 216.092 21.7014C216.092 22.6289 215.659 25.6405 213.096 25.6405C211.871 25.6405 211.246 24.6609 211.246 23.4469C211.246 21.8369 211.955 19.5599 214.075 19.5599ZM222.459 16.095H217.259L216.905 17.8665H216.852C216.008 16.2513 214.404 15.7511 212.658 15.7511C208.25 15.7511 205.853 19.7423 205.853 23.6553C205.853 26.9066 208.005 28.996 211.381 28.996C212.689 28.996 213.94 28.5218 214.758 27.6204H214.815L214.487 29.0741C214.216 30.2882 213.804 31.5074 212.173 31.5074C211.632 31.5074 211.194 31.4293 210.923 31.2156C210.621 30.9238 210.49 30.5539 210.49 30.0276H205.155C204.962 34.4148 210.027 34.5972 211.689 34.5972C218.52 34.5972 219.254 31.2938 220.072 27.4329L222.469 16.095H222.459Z" fill="#002A42"/>
<path d="M113.394 20.9563C114.509 20.9563 114.994 21.7222 114.994 22.7435C114.994 24.1503 114.228 25.8593 112.66 25.8593C111.545 25.8593 111.06 25.0934 111.06 24.0721C111.06 22.6914 111.826 20.9563 113.394 20.9563ZM112.561 27.0681C115.03 27.0681 116.521 25.1611 116.521 22.733C116.521 20.8 115.395 19.7527 113.488 19.7527C111.097 19.7527 109.528 21.7535 109.528 24.0357C109.528 25.9687 110.659 27.0681 112.561 27.0681Z" fill="#002A42"/>
<path d="M118.6 21.0762H117.458L117.688 19.9351H118.829C119.162 18.3355 119.407 17.2882 121.283 17.2882C121.7 17.2882 122.064 17.3403 122.424 17.382L122.169 18.5491C121.981 18.5074 121.794 18.497 121.58 18.497C120.548 18.497 120.574 19.1014 120.361 19.9351H121.7L121.47 21.0762H120.126L118.917 26.8754H117.385L118.594 21.0762H118.6Z" fill="#002A42"/>
<path d="M107.913 38.5936C108.179 36.9523 107.329 35.5976 104.917 35.5976C102.505 35.5976 98.8938 37.588 98.8938 41.8709C98.8938 44.5491 100.41 46.2581 102.786 46.2581C104.584 46.2581 106.22 45.3046 107.35 43.5956H107.705L106.788 46.3988H106.663C106.433 46.2946 106.293 46.2581 106.048 46.2581C105.464 46.2581 104.125 46.6801 102.63 46.6801C99.0866 46.6801 97.3463 44.2156 97.3463 41.6938C97.3463 38.0308 100.728 35.1755 105.063 35.1755C106.527 35.1755 107.83 35.4413 108.924 35.9675L108.252 38.5936H107.918H107.913Z" fill="#002A42"/>
<path d="M109.002 40.9174C109.705 40.089 110.659 39.2084 111.117 39.2084C111.399 39.2084 111.576 39.4012 111.399 40.2818L110.414 45.1118C110.346 45.4818 110.325 45.6954 110.518 45.6954C110.695 45.6954 111.154 45.1848 111.628 44.622L111.857 44.8148C111.097 45.711 110.185 46.6124 109.674 46.6124C109.377 46.6124 109.2 46.3832 109.2 45.9976C109.2 45.8204 109.236 45.5234 109.273 45.3307L110.258 40.5006C110.294 40.3234 110.273 40.2557 110.19 40.2557C110.107 40.2557 109.961 40.3287 109.82 40.485L109.184 41.1363L109.007 40.9279L109.002 40.9174ZM111.894 35.4413C112.159 35.4413 112.352 35.6705 112.352 36.004C112.352 36.5667 112.071 37.3275 111.508 37.3275C111.242 37.3275 111.065 37.1347 111.065 36.7804C111.065 36.0926 111.472 35.4413 111.894 35.4413Z" fill="#002A42"/>
<path d="M116.844 40.0005H115.468L114.395 45.3203C114.306 45.7788 114.322 45.956 114.52 45.956C114.733 45.956 115.327 45.4974 116.192 44.6169L116.369 44.8461C115.437 45.8518 114.363 46.6073 113.853 46.6073C113.499 46.6073 113.269 46.3415 113.269 45.9039C113.269 45.6381 113.342 45.164 113.41 44.8097L114.379 40.0005H113.478L113.551 39.6982C114.499 39.2762 115.26 38.5363 116.14 37.1451H116.422C116.067 37.8329 115.77 38.6978 115.614 39.4169H116.99L116.849 40.0005H116.844Z" fill="#002A42"/>
<path d="M117.125 41.0945C118.006 39.844 118.73 39.2084 119.152 39.2084C119.699 39.2084 120.527 42.1523 120.543 45.8152H120.579C121.533 44.1947 122.903 41.2717 122.903 40.5475C122.903 40.214 122.622 40.2817 122.622 39.8753C122.622 39.5262 122.94 39.2084 123.31 39.2084C123.732 39.2084 124.013 39.5627 124.013 40.0733C124.013 41.7146 121.476 44.3042 120.632 46.4144L119.907 48.2276C119.642 48.8945 119.293 49.5823 119.293 49.7595C119.293 50.0408 119.595 50.0929 120.418 50.1138L120.293 50.3951H116.646L116.771 50.1138C117.458 50.1138 117.776 50.0096 117.896 49.8845C118.125 49.6553 119.605 47.0136 119.605 45.2473C119.605 43.3976 118.829 40.0525 118.563 40.0525C118.282 40.0525 118.016 40.3495 117.328 41.2352L117.115 41.0945H117.125Z" fill="#002A42"/>
<path d="M130.26 42.5483C130.26 43.5122 129.765 44.8773 128.927 44.8773C128.572 44.8773 128.192 44.4449 128.192 43.5643C128.192 42.517 128.781 41.2457 129.437 41.2457C129.901 41.2457 130.255 41.8136 130.255 42.5483H130.26ZM127.52 43.6112C127.52 44.4813 127.957 45.2681 128.452 45.2681C128.947 45.2681 130.927 44.398 130.927 42.4024C130.927 41.2822 130.276 40.8601 129.974 40.8601C129.343 40.8601 127.52 41.9074 127.52 43.606V43.6112Z" fill="#002A42"/>
<path d="M131.558 41.3343L131.589 41.1363C131.839 41.1051 132.095 41.0634 132.355 41.0008C132.511 40.1411 132.829 39.2397 133.413 38.6509C133.777 38.281 134.241 38.083 134.648 38.083C135.054 38.083 135.393 38.3123 135.393 38.5884C135.393 38.7552 135.268 38.8906 135.101 38.8906C134.757 38.8906 134.47 38.4582 134.168 38.4582C133.757 38.4582 133.423 38.9167 133.277 39.6097L132.996 40.9852H133.897L133.793 41.3291H132.933L132.397 44.3928C131.99 46.7427 130.792 47.5816 129.807 47.5816C129.369 47.5816 129 47.3628 129 47.097C129 46.9303 129.166 46.7844 129.343 46.7844C129.734 46.7844 129.943 47.2481 130.339 47.2481C130.578 47.2481 130.792 47.1335 130.979 46.9459C131.506 46.4197 131.704 44.6273 131.745 44.3772L132.282 41.3343H131.558Z" fill="#002A42"/>
<path d="M148.341 38.5936C148.606 36.9523 147.757 35.5976 145.345 35.5976C142.932 35.5976 139.321 37.588 139.321 41.8709C139.321 44.5491 140.838 46.2581 143.214 46.2581C145.011 46.2581 146.647 45.3046 147.778 43.5956H148.132L147.215 46.3988H147.09C146.861 46.2946 146.72 46.2581 146.475 46.2581C145.897 46.2581 144.553 46.6801 143.057 46.6801C139.514 46.6801 137.769 44.2156 137.769 41.6938C137.769 38.0308 141.15 35.1755 145.485 35.1755C146.949 35.1755 148.252 35.4413 149.346 35.9675L148.674 38.5936H148.341Z" fill="#002A42"/>
<path d="M150.367 35.6706L152.285 34.6285C152.441 34.5399 152.462 34.5399 152.551 34.5399C152.743 34.5399 152.795 34.6806 152.743 34.9463L151.139 42.8557L151.175 42.8922C152.306 41.376 154.135 39.2085 155.14 39.2085C155.547 39.2085 155.807 39.6149 155.807 40.2297C155.807 40.5111 155.719 40.9852 155.63 41.3395L154.624 45.2161C154.536 45.586 154.588 45.6902 154.713 45.6902C154.942 45.6902 155.385 45.3046 156.088 44.5075L156.281 44.6846C155.437 45.7788 154.432 46.6073 153.937 46.6073C153.655 46.6073 153.478 46.3624 153.478 45.9195C153.478 45.6746 153.551 45.1796 153.619 44.8774L154.536 41.3343C154.624 41.0165 154.676 40.5788 154.676 40.3652C154.676 40.1359 154.588 39.9952 154.411 39.9952C153.775 39.9952 151.91 42.2305 150.993 43.5748L150.446 46.2529C150.393 46.4978 150.289 46.6073 150.112 46.6073H149.617C149.32 46.6073 149.299 46.5187 149.351 46.2217L151.482 35.7539C151.519 35.6133 151.446 35.5612 151.357 35.5612C151.284 35.5612 151.201 35.5768 150.987 35.6862L150.513 35.9311L150.357 35.6654L150.367 35.6706Z" fill="#002A42"/>
<path d="M161.763 42.0481C161.763 43.6685 160.934 45.9611 159.522 45.9611C158.923 45.9611 158.287 45.2368 158.287 43.7571C158.287 41.996 159.272 39.8649 160.382 39.8649C161.158 39.8649 161.757 40.8184 161.757 42.0481H161.763ZM157.167 43.8248C157.167 45.2889 157.907 46.6072 158.735 46.6072C159.564 46.6072 162.893 45.143 162.893 41.798C162.893 39.9118 161.799 39.2084 161.289 39.2084C160.231 39.2084 157.167 40.9695 157.167 43.8248Z" fill="#002A42"/>
<path d="M163.951 40.9174C164.654 40.089 165.608 39.2084 166.066 39.2084C166.348 39.2084 166.525 39.4012 166.348 40.2818L165.363 45.1118C165.295 45.4818 165.274 45.6954 165.467 45.6954C165.644 45.6954 166.103 45.1848 166.577 44.622L166.806 44.8148C166.046 45.711 165.134 46.6124 164.623 46.6124C164.321 46.6124 164.149 46.3832 164.149 45.9976C164.149 45.8204 164.186 45.5234 164.222 45.3307L165.207 40.5006C165.243 40.3234 165.222 40.2557 165.134 40.2557C165.045 40.2557 164.905 40.3287 164.764 40.485L164.128 41.1363L163.951 40.9279V40.9174ZM166.838 35.4413C167.103 35.4413 167.296 35.6705 167.296 36.004C167.296 36.5667 167.015 37.3275 166.452 37.3275C166.186 37.3275 166.014 37.1347 166.014 36.7804C166.014 36.0926 166.421 35.4413 166.843 35.4413H166.838Z" fill="#002A42"/>
<path d="M171.683 45.0076C170.839 45.9924 169.813 46.6124 169.057 46.6124C168.156 46.6124 167.557 45.8882 167.557 44.7992C167.557 42.7723 169.198 39.2136 171.433 39.2136C171.996 39.2136 172.329 39.4585 172.329 39.8493C172.329 40.1671 172.152 40.3964 171.886 40.3964C171.303 40.3964 171.058 39.9379 170.563 39.9379C169.417 39.9379 168.64 43.4289 168.64 44.6429C168.64 45.4557 169.026 45.9663 169.662 45.9663C170.188 45.9663 170.876 45.5443 171.438 44.8409L171.668 45.018L171.683 45.0076Z" fill="#002A42"/>
<path d="M176.581 40.3391C176.581 40.8341 176.404 41.376 175.966 41.8189C175.685 42.1002 174.872 42.5431 173.658 42.8557C174.153 40.7403 174.893 39.5784 175.93 39.5784C176.373 39.5784 176.581 39.8233 176.581 40.3339V40.3391ZM176.81 45.0233C175.966 45.659 175.294 45.956 174.783 45.956C173.585 45.956 173.199 44.6898 173.585 43.1892C175.628 42.59 177.602 41.6938 177.602 40.3495C177.602 39.6097 177.092 39.2032 176.175 39.2032C173.991 39.2032 172.298 41.9856 172.298 44.2052C172.298 45.56 173.054 46.602 174.044 46.602C174.783 46.602 175.909 46.0914 176.967 45.263L176.81 45.0181V45.0233Z" fill="#002A42"/>
</svg>
