<svg xmlns="http://www.w3.org/2000/svg" width="200" height="95.518" viewBox="0 0 200 95.518">
  <g id="Group_6500" data-name="Group 6500" transform="translate(-73.708 -131.803)">
    <g id="Group_509" data-name="Group 509" transform="translate(178.512 170.099)">
      <path id="Path_158" data-name="Path 158" d="M437.626,277v-5.05c0-3.15,2.257-5.228,5.7-5.228,3.419,0,5.675,2.078,5.675,5.228v.559H446.63v-.492a3.337,3.337,0,0,0-6.659,0v4.915a3.337,3.337,0,0,0,6.659,0v-.491H449V277c0,3.15-2.257,5.228-5.675,5.228C439.883,282.226,437.626,280.148,437.626,277Z" transform="translate(-437.626 -266.161)" fill="#1b2555"/>
      <path id="Path_159" data-name="Path 159" d="M484.1,266.121a1.409,1.409,0,0,1,2.815,0,1.408,1.408,0,0,1-2.815,0Zm.29,3.284h2.235v11.172h-2.235Z" transform="translate(-470.715 -264.78)" fill="#1b2555"/>
      <path id="Path_160" data-name="Path 160" d="M502.573,275.67v5.653a1.349,1.349,0,0,0,1.452,1.452h1.117v2.056h-1.676a2.86,2.86,0,0,1-3.128-2.927V275.67h-1.966v-2.011h1.363a.694.694,0,0,0,.76-.76v-2.145h2.078v2.9h2.7v2.011Z" transform="translate(-480.878 -269.033)" fill="#1b2555"/>
      <path id="Path_161" data-name="Path 161" d="M526.444,294.179h1.251a1.368,1.368,0,0,0,1.408-.938l.559-1.452h-.693l-3.754-10.948h2.48l2.659,8.691h.313l2.659-8.691h2.391l-4.536,13.093a2.764,2.764,0,0,1-2.949,2.1h-1.788Z" transform="translate(-499.991 -276.215)" fill="#1b2555"/>
      <path id="Path_162" data-name="Path 162" d="M576.8,287.349v-3.173c0-2.569,1.855-4.267,4.67-4.267,2.793,0,4.647,1.7,4.647,4.267v3.173c0,2.569-1.854,4.268-4.647,4.268C578.658,291.617,576.8,289.919,576.8,287.349Zm7.083-.022V284.2a2.432,2.432,0,0,0-4.849,0v3.128a2.432,2.432,0,0,0,4.849,0Z" transform="translate(-536.722 -275.552)" fill="#1b2555"/>
      <path id="Path_163" data-name="Path 163" d="M617.081,268.63v1.162h2.569V271.8h-2.569v9.161h-2.235V271.8H612.88v-2.011h1.966V268.25a2.86,2.86,0,0,1,3.128-2.927h1.676v1.855h-1.095A1.367,1.367,0,0,0,617.081,268.63Z" transform="translate(-562.409 -265.167)" fill="#1b2555"/>
    </g>
    <g id="Group_510" data-name="Group 510" transform="translate(178.512 212.082)">
      <path id="Path_164" data-name="Path 164" d="M562.257,422.4V410.563h3.128v11.015a.987.987,0,0,0,1.073,1.072h.67v2.882h-1.519A3.066,3.066,0,0,1,562.257,422.4Z" transform="translate(-526.365 -410.563)" fill="#1b2555"/>
      <path id="Path_165" data-name="Path 165" d="M449.088,421.6a3.772,3.772,0,0,1-4.044,3.932h-7.418v-14.97H444.6a3.749,3.749,0,0,1,4.044,3.888,3.175,3.175,0,0,1-2.457,3.4v.179A3.43,3.43,0,0,1,449.088,421.6Zm-8.155-8.155v3.217h2.77a1.513,1.513,0,0,0,1.631-1.586,1.536,1.536,0,0,0-1.631-1.631Zm4.848,7.507a1.542,1.542,0,0,0-1.631-1.653h-3.217v3.351h3.217A1.567,1.567,0,0,0,445.781,420.952Z" transform="translate(-437.626 -410.563)" fill="#1b2555"/>
      <path id="Path_166" data-name="Path 166" d="M481.832,430.016v-2.681c0-2.726,1.966-4.513,4.916-4.513s4.893,1.788,4.893,4.513v2.681c0,2.726-1.944,4.513-4.893,4.513S481.832,432.741,481.832,430.016Zm6.681-.022v-2.637a1.6,1.6,0,0,0-1.765-1.653,1.622,1.622,0,0,0-1.788,1.653v2.637a1.622,1.622,0,0,0,1.788,1.653A1.6,1.6,0,0,0,488.513,429.993Z" transform="translate(-469.101 -419.291)" fill="#1b2555"/>
      <path id="Path_167" data-name="Path 167" d="M531.346,423.752v11.172h-3.128V433.36h-.179a2.986,2.986,0,0,1-2.9,1.832,3.1,3.1,0,0,1-3.284-3.262v-8.177h3.128v6.993a1.443,1.443,0,0,0,1.564,1.519,1.532,1.532,0,0,0,1.676-1.5v-7.016Z" transform="translate(-497.595 -419.954)" fill="#1b2555"/>
      <path id="Path_168" data-name="Path 168" d="M593.477,410.563v14.97h-3.128v-1.564h-.179A3.06,3.06,0,0,1,587.2,425.8a3.408,3.408,0,0,1-3.53-3.642v-4.424a3.408,3.408,0,0,1,3.53-3.642,3.06,3.06,0,0,1,2.972,1.832h.179v-5.362Zm-3.128,10.68v-2.592a1.661,1.661,0,0,0-1.81-1.631,1.6,1.6,0,0,0-1.743,1.653v2.547a1.6,1.6,0,0,0,1.743,1.653A1.661,1.661,0,0,0,590.349,421.243Z" transform="translate(-541.61 -410.563)" fill="#1b2555"/>
      <path id="Path_169" data-name="Path 169" d="M627.405,429.7v.626A1.671,1.671,0,0,0,629.259,432c1.006,0,1.7-.469,1.7-1.162v-.067h3.128v.067c0,2.212-1.944,3.687-4.826,3.687-3.016,0-4.982-1.788-4.982-4.513v-2.681c0-2.726,1.944-4.513,4.916-4.513,2.949,0,4.893,1.81,4.893,4.558V429.7Zm0-2.7v.558h3.552V427a1.6,1.6,0,0,0-1.765-1.653A1.622,1.622,0,0,0,627.405,427Z" transform="translate(-570.524 -419.291)" fill="#1b2555"/>
      <path id="Path_170" data-name="Path 170" d="M671.239,422.821v3.195H670.7a2.519,2.519,0,0,0-2.815,2.547v5.7H664.76V423.089h3.128v1.877h.179a2.756,2.756,0,0,1,2.77-2.145Z" transform="translate(-599.348 -419.291)" fill="#1b2555"/>
    </g>
    <g id="Group_511" data-name="Group 511" transform="translate(178.512 190.017)">
      <path id="Path_171" data-name="Path 171" d="M442.229,348.219l-1.3,1.609v4.334h-3.307v-14.97h3.307v6.033h.2l4.513-6.033h3.821l-5.049,6.3,5.139,8.669h-3.91Z" transform="translate(-437.626 -337.68)" fill="#1b2555"/>
      <path id="Path_172" data-name="Path 172" d="M490.537,355.227v7.664h-3.016v-1.407h-.2a3.085,3.085,0,0,1-3.016,1.675c-2.167,0-3.62-1.3-3.62-3.307,0-2.033,1.475-3.374,3.687-3.374h3.039V355.45a1.48,1.48,0,0,0-1.676-1.474c-.916,0-1.586.469-1.586,1.184v.246h-3.039V355c0-2.145,1.877-3.552,4.692-3.552C488.683,351.451,490.537,352.948,490.537,355.227Zm-3.128,4.268v-.961H485.13a1.143,1.143,0,0,0-1.3,1.095c0,.693.648,1.162,1.676,1.162C486.627,360.79,487.409,360.276,487.409,359.495Z" transform="translate(-468.284 -346.409)" fill="#1b2555"/>
      <path id="Path_173" data-name="Path 173" d="M521.336,351.034V339.192h3.128v11.015a.987.987,0,0,0,1.073,1.072h.67v2.882h-1.519A3.066,3.066,0,0,1,521.336,351.034Z" transform="translate(-497.229 -337.68)" fill="#1b2555"/>
      <path id="Path_174" data-name="Path 174" d="M552.559,351.719v11.6c0,2.279-1.854,3.865-4.826,3.865-2.815,0-4.759-1.385-4.759-3.552V363.4h3.039v.09c0,.8.67,1.318,1.676,1.318a1.6,1.6,0,0,0,1.743-1.654V360.79h-.179a3.11,3.11,0,0,1-2.972,1.765,3.408,3.408,0,0,1-3.53-3.642v-3.821a3.408,3.408,0,0,1,3.53-3.642,3.059,3.059,0,0,1,2.972,1.832h.179v-1.564ZM549.431,358v-1.988a1.661,1.661,0,0,0-1.81-1.631,1.6,1.6,0,0,0-1.743,1.653v1.944a1.6,1.6,0,0,0,1.743,1.653A1.674,1.674,0,0,0,549.431,358Z" transform="translate(-512.476 -346.409)" fill="#1b2555"/>
      <path id="Path_175" data-name="Path 175" d="M583.351,358.645v-2.681c0-2.726,1.966-4.513,4.915-4.513s4.893,1.787,4.893,4.513v2.681c0,2.726-1.944,4.513-4.893,4.513S583.351,361.371,583.351,358.645Zm6.68-.022v-2.637a1.6,1.6,0,0,0-1.765-1.653,1.622,1.622,0,0,0-1.787,1.653v2.637a1.621,1.621,0,0,0,1.787,1.653A1.6,1.6,0,0,0,590.031,358.623Z" transform="translate(-541.384 -346.409)" fill="#1b2555"/>
      <path id="Path_176" data-name="Path 176" d="M623.381,358.645v-2.681c0-2.726,1.966-4.513,4.916-4.513s4.893,1.787,4.893,4.513v2.681c0,2.726-1.944,4.513-4.893,4.513S623.381,361.371,623.381,358.645Zm6.681-.022v-2.637a1.6,1.6,0,0,0-1.765-1.653,1.622,1.622,0,0,0-1.788,1.653v2.637a1.622,1.622,0,0,0,1.788,1.653A1.6,1.6,0,0,0,630.062,358.623Z" transform="translate(-569.886 -346.409)" fill="#1b2555"/>
      <path id="Path_177" data-name="Path 177" d="M669.892,351.451v3.2h-.536a2.519,2.519,0,0,0-2.815,2.547v5.7h-3.128V351.719h3.128V353.6h.179a2.756,2.756,0,0,1,2.77-2.145Z" transform="translate(-598.388 -346.409)" fill="#1b2555"/>
      <path id="Path_178" data-name="Path 178" d="M716.673,351.53h3.151v11.255h-3.151Z" transform="translate(-636.311 -346.465)" fill="#1b2555"/>
      <path id="Path_179" data-name="Path 179" d="M737.021,357.525v.63a1.683,1.683,0,0,0,1.868,1.688c1.013,0,1.711-.473,1.711-1.171v-.067h3.151v.067c0,2.228-1.958,3.714-4.862,3.714-3.039,0-5.02-1.8-5.02-4.547v-2.7c0-2.746,1.958-4.547,4.952-4.547,2.971,0,4.93,1.823,4.93,4.592v2.341Zm0-2.724v.562H740.6V354.8a1.615,1.615,0,0,0-1.778-1.666A1.634,1.634,0,0,0,737.021,354.8Z" transform="translate(-648.555 -345.797)" fill="#1b2555"/>
      <path id="Path_180" data-name="Path 180" d="M691.575,351.034V339.192H694.7v11.015a.987.987,0,0,0,1.072,1.072h.67v2.882h-1.519A3.066,3.066,0,0,1,691.575,351.034Z" transform="translate(-618.441 -337.68)" fill="#1b2555"/>
      <path id="Path_181" data-name="Path 181" d="M715.658,335.766a1.881,1.881,0,1,1,1.891,1.8A1.744,1.744,0,0,1,715.658,335.766Z" transform="translate(-635.588 -333.943)" fill="#1b2555"/>
    </g>
    <path id="Path_182" data-name="Path 182" d="M168.988,131.8H73.708v71.262l1.885,2.253-1.885,21.714h95.28V214.069l-1.465-3.211,1.465-4.261Z" transform="translate(0 0)" fill="#1b2555"/>
    <path id="Path_183" data-name="Path 183" d="M259.416,329.806a146.157,146.157,0,0,1-13.026,10.558c-5.79,3.968-11.008,3.786-14.66,3.681Z" transform="translate(-112.513 -140.981)" fill="#fff"/>
    <path id="Path_184" data-name="Path 184" d="M73.708,379.253h45.509L73.708,402.663Z" transform="translate(0 -176.187)" fill="#fff"/>
    <path id="Path_185" data-name="Path 185" d="M312,356.653H282.484l-7.92-6.449L312,332.06Z" transform="translate(-143.012 -142.586)" fill="#fff"/>
    <path id="Path_186" data-name="Path 186" d="M73.708,420.789V403.929h33.6c4.985,0,7.428.9,11.905,6.075a88.622,88.622,0,0,1,8.281,10.785Z" transform="translate(0 -193.757)" fill="#fda200"/>
    <path id="Path_187" data-name="Path 187" d="M73.708,423.981V408.412H94.243a14.9,14.9,0,0,1,10.582,4.377,36.387,36.387,0,0,1,7.781,11.192Z" transform="translate(0 -196.949)" fill="#a20c1a"/>
    <path id="Path_188" data-name="Path 188" d="M147.725,427.96a146.981,146.981,0,0,1,13.139-10.367c5.838-3.9,11.15-3.678,14.8-3.529C174.835,414.479,147.725,427.96,147.725,427.96Z" transform="translate(-52.701 -200.928)" fill="#fff"/>
    <path id="Path_189" data-name="Path 189" d="M223.448,406.212s3.71-9,9.82-14.208c5.344-4.551,13.526-3.513,16.409-3.263C248.811,389.1,223.29,405.957,223.448,406.212Z" transform="translate(-106.617 -182.744)" fill="#fda200"/>
    <path id="Path_190" data-name="Path 190" d="M342.215,349.184H317l25.215-17.123Z" transform="translate(-173.227 -142.586)" fill="#fda200"/>
    <path id="Path_191" data-name="Path 191" d="M362.023,347.629h-17.2l17.2-15.569Z" transform="translate(-193.035 -142.586)" fill="#a20c1a"/>
    <path id="Path_192" data-name="Path 192" d="M260.486,407.722s1.83-10.56,7.312-16.861c4.794-5.51,13.067-5.547,16.975-5.128C284.016,386.407,260.486,407.722,260.486,407.722Z" transform="translate(-132.989 -180.689)" fill="#a20c1a"/>
    <circle id="Ellipse_1" data-name="Ellipse 1" cx="2.042" cy="2.042" r="2.042" transform="translate(164.355 193.526)" fill="#fda200"/>
  </g>
</svg>
