<svg id="Layer_1" data-name="Layer 1" xmlns="http://www.w3.org/2000/svg" viewBox="0 0 777.84 371.29"><defs><style>.cls-1{fill:#00446a;}.cls-2{fill:#49a942;}.cls-3{fill:#008da8;}.cls-4{fill:#008ca8;}.cls-5{fill:#231f20;}</style></defs><path class="cls-1" d="M74.28,236.79v12.6q-12.6,6.87-29.09,6.87-13.39,0-22.73-5.38A39.62,39.62,0,0,1,7.68,236.05a40.23,40.23,0,0,1-5.44-20.44A39,39,0,0,1,14.7,186.23q12.45-11.91,30.72-11.91,12.6,0,28,6.59v12.31q-14-8-27.43-8-13.74,0-22.82,8.68a28.79,28.79,0,0,0-9.07,21.73q0,13.17,8.93,21.64t22.85,8.48Q60.42,245.73,74.28,236.79Z"/><path class="cls-1" d="M90.55,180.51A6.11,6.11,0,0,1,95,182.28a5.8,5.8,0,0,1,1.84,4.35A5.91,5.91,0,0,1,95,191a6,6,0,0,1-4.41,1.84A5.76,5.76,0,0,1,86.32,191a6,6,0,0,1-1.83-4.33,5.91,5.91,0,0,1,1.83-4.26A5.76,5.76,0,0,1,90.55,180.51ZM85.4,202.67H95.82v52.68H85.4Z"/><path class="cls-1" d="M101.74,211l19.58-19.24v10.88H138v9.39H121.32v25.78q0,9,7.5,9a23.3,23.3,0,0,0,11.86-3.72v9.73a26.25,26.25,0,0,1-13.12,3.38,17.37,17.37,0,0,1-11.91-4.18,12,12,0,0,1-2.46-2.83,15,15,0,0,1-1.63-4.12,46.26,46.26,0,0,1-.66-9.71V212.06h-9.16Z"/><path class="cls-1" d="M181.69,202.67h11.69L156.06,282.2H144.43L162.31,244,142,202.67h11.88l14.23,29.75Z"/><path class="cls-1" d="M245.71,202.55q12,0,20,7.76a26.08,26.08,0,0,1,8,19.5,24.78,24.78,0,0,1-8.07,18.92q-8.07,7.53-20.33,7.53-11.85,0-19.81-7.64a27,27,0,0,1,.08-38.37Q233.58,202.56,245.71,202.55Zm-.57,9.39a16.49,16.49,0,0,0-12.32,4.93A17.22,17.22,0,0,0,228,229.41a16.42,16.42,0,0,0,4.93,12.34,17.39,17.39,0,0,0,12.65,4.78,17.1,17.1,0,0,0,12.57-4.84,17.9,17.9,0,0,0-.2-24.82A17.73,17.73,0,0,0,245.14,211.94Z"/><path class="cls-1" d="M284.66,202.67v-3.15q0-12.72,5.41-19t13-6.24a35.44,35.44,0,0,1,7.73,1v10.19a14.31,14.31,0,0,0-4.81-.91c-4.08,0-6.92,1.09-8.5,3.26s-2.38,6.05-2.38,11.63v3.15h9.39v9.39h-9.39v43.29H284.66V212.06H277.1v-9.39Z"/><path class="cls-1" d="M370.36,255.35H343.27v-80h21q9.9,0,15.46,2.66a19.13,19.13,0,0,1,11.4,18.13q0,11.79-12.2,16.89,8.76,1.66,13.94,7.22A18.77,18.77,0,0,1,398,233.53a19.6,19.6,0,0,1-3.15,10.94,23,23,0,0,1-9.25,7.84Q379.52,255.36,370.36,255.35Zm-5.79-69.81h-9.85v24.05h7.62q9.17,0,13-3.49a11.65,11.65,0,0,0,3.86-9Q379.23,185.55,364.57,185.54Zm.86,34.25H354.72v25.36H366q9.39,0,12.74-1.46a12.08,12.08,0,0,0,5.38-4.55,11.89,11.89,0,0,0,2-6.64,11.36,11.36,0,0,0-2.15-6.7,12.71,12.71,0,0,0-6.09-4.52Q374,219.8,365.43,219.79Z"/><path class="cls-1" d="M439.66,255.35v-6.76a24.25,24.25,0,0,1-7.59,5.65,19.67,19.67,0,0,1-8.5,2,17.74,17.74,0,0,1-9.19-2.49A16.18,16.18,0,0,1,408,247q-2.14-4.26-2.14-14.17V202.67H416.3v30q0,8.3,2.37,11.58c1.59,2.19,4.36,3.29,8.34,3.29q7.44,0,12.65-7.27V202.67h10.42v52.68Z"/><path class="cls-1" d="M460.4,251.57V240.34a46.67,46.67,0,0,0,9,5,21,21,0,0,0,7.76,1.92,9.67,9.67,0,0,0,5.61-1.6,4.61,4.61,0,0,0,2.35-3.84,5.16,5.16,0,0,0-1.52-3.81,35.17,35.17,0,0,0-6.55-4.38Q467,228,463.87,224.05a13.74,13.74,0,0,1-3.12-8.67,12.18,12.18,0,0,1,4.72-9.91q4.72-3.83,12.17-3.83A33.52,33.52,0,0,1,493.5,206v10.3q-9.27-5.61-15.17-5.61a8.43,8.43,0,0,0-4.9,1.29,4,4,0,0,0-1.86,3.42,4.88,4.88,0,0,0,1.69,3.49,28.57,28.57,0,0,0,5.92,4L482.9,225q13.19,7.44,13.18,16.49A13.13,13.13,0,0,1,491,252.12q-5.07,4.14-13,4.14a31.73,31.73,0,0,1-8.36-1A57.15,57.15,0,0,1,460.4,251.57Z"/><path class="cls-1" d="M503.77,251.57V240.34a46.37,46.37,0,0,0,9,5,21,21,0,0,0,7.76,1.92,9.72,9.72,0,0,0,5.61-1.6,4.63,4.63,0,0,0,2.35-3.84A5.2,5.2,0,0,0,527,238a35.36,35.36,0,0,0-6.56-4.38q-10.08-5.59-13.2-9.59a13.74,13.74,0,0,1-3.12-8.67,12.19,12.19,0,0,1,4.73-9.91q4.73-3.83,12.16-3.83A33.53,33.53,0,0,1,536.87,206v10.3q-9.29-5.61-15.18-5.61A8.39,8.39,0,0,0,516.8,212a4,4,0,0,0-1.87,3.42,4.92,4.92,0,0,0,1.69,3.49,28.42,28.42,0,0,0,5.93,4l3.72,2.12q13.17,7.44,13.17,16.49a13.13,13.13,0,0,1-5.07,10.62q-5.05,4.14-13,4.14a31.67,31.67,0,0,1-8.36-1A56.79,56.79,0,0,1,503.77,251.57Z"/><path class="cls-1" d="M594.6,229.92h-37q.39,7.56,5.06,12a16.75,16.75,0,0,0,12.06,4.46,31.35,31.35,0,0,0,19-6.41v10.19a34.62,34.62,0,0,1-9.54,4.58,39.7,39.7,0,0,1-11.08,1.38q-8.7,0-14.08-3.61a26.12,26.12,0,0,1-8.62-9.71,29.59,29.59,0,0,1-3.24-14.11q0-12,6.82-19.56t17.69-7.52q10.49,0,16.72,7.32t6.24,19.65Zm-36.82-6.24H584.3q-.4-6.24-3.73-9.62a12,12,0,0,0-8.93-3.38,12.87,12.87,0,0,0-9.19,3.38Q558.88,217.44,557.78,223.68Z"/><path class="cls-1" d="M604.35,175.35h10.43v80H604.35Z"/><path class="cls-1" d="M620.69,211l19.58-19.24v10.88h16.67v9.39H640.27v25.78q0,9,7.5,9a23.27,23.27,0,0,0,11.86-3.72v9.73a26.25,26.25,0,0,1-13.12,3.38,17.37,17.37,0,0,1-11.91-4.18,12,12,0,0,1-2.46-2.83,15,15,0,0,1-1.63-4.12,46.26,46.26,0,0,1-.66-9.71V212.06h-9.16Z"/><path class="cls-1" d="M690.56,202.55q12,0,20,7.76a26.11,26.11,0,0,1,8,19.5,24.75,24.75,0,0,1-8.08,18.92q-8.07,7.53-20.33,7.53-11.85,0-19.81-7.64a27,27,0,0,1,.09-38.37Q678.42,202.56,690.56,202.55Zm-.57,9.39a16.48,16.48,0,0,0-12.31,4.93,17.18,17.18,0,0,0-4.81,12.54,16.45,16.45,0,0,0,4.92,12.34,17.4,17.4,0,0,0,12.66,4.78A17.13,17.13,0,0,0,703,241.69a17.93,17.93,0,0,0-.2-24.82A17.75,17.75,0,0,0,690,211.94Z"/><path class="cls-1" d="M738.74,202.67v6.7q7-7.74,15.86-7.73a17.55,17.55,0,0,1,9.16,2.54,16.65,16.65,0,0,1,6.44,7q2.2,4.44,2.21,14.06v30.12H762v-30q0-8.07-2.47-11.54c-1.64-2.3-4.39-3.46-8.24-3.46q-7.39,0-12.54,7.39v37.62H728.09V202.67Z"/><path class="cls-2" d="M776.11,61.84c2.18-11.05,3.22-16.64-3.47-17.6-15-3.54-69.95,49.44-81.19,43.61-24.4,29.62-182.1,45.06-130.08,64.28,48.76-9.32,159.63,5.15,215.41-2.48C772.16,102.26,781.5,101.55,776.11,61.84Z"/><path class="cls-2" d="M60.53,120.88c-1.2,4.83-6.13-14.49-8.7-24-4.8,8.82,15.36,54.44,8.7,24"/><path class="cls-3" d="M375.1,127.67l-3.6-.2c-9.91-.54-23.49-1.28-35.87-3a.83.83,0,0,0-.91.64.82.82,0,0,0,.57,1A155.84,155.84,0,0,0,352,130.1c-2.37.13-6.48.07-16.74-.89h-.21a1.16,1.16,0,0,0-1,.68.92.92,0,0,0,.19.87c.73.77,9,1.54,16.32,1.54a43.26,43.26,0,0,0,9.67-.79.78.78,0,0,0,.48-.46c.69,0,1.38.07,2.06.07a41,41,0,0,0,12.53-1.87.82.82,0,0,0-.2-1.59Z"/><path class="cls-3" d="M657.5,91.76c-.55-.74-2.76.06-5,1.16,1.08-1.27,1.16-2,.84-2.56C652,88,642.57,91.35,615,102.45c-9.19,3.7-17.86,7.18-23.39,9a.7.7,0,0,0-.42.42.65.65,0,0,0,.07.59c.56.89,2.27.69,6.63-.07,1.12-.19,2.53-.43,3.47-.52l-.53.36c-6,1.88-6,1.88-5.79,2.64a.64.64,0,0,0,.69.5,3.29,3.29,0,0,0,.7-.11c.17,0,16.13-4,15.74-6.07-.11-.57-.43-.87-2.53-.7,14.11-7,24.44-8.91,43-11.42a.71.71,0,0,0,.32-.14C657.92,93.12,658,92.41,657.5,91.76Z"/><path class="cls-3" d="M326.61,127.79c-4.55-1.91-6-1.58-8-.87-1.41.5-3.17,1.13-7.62.56a.74.74,0,0,0-.54.18.64.64,0,0,0-.22.52c0,.42.24,1,1.23,1.45a18.4,18.4,0,0,0,6.2.78c3.83,0,8-.55,9.11-1.47a.68.68,0,0,0,.23-.62A.67.67,0,0,0,326.61,127.79Z"/><path class="cls-3" d="M524.67,127.25c-4-.84-12,4.08-15.3,5.08,3-.56,21.68-.32,15.3-5.08"/><path class="cls-3" d="M583.15,112.92a43,43,0,0,0-4.7.76c6-2.93,5.28-3.76-12.07,1.83-3.77,1.45-42.88,3.94-27.26,9.86-1.46,4,18.41-2.8,31.55-8.24a2,2,0,0,0,.88.54C573.2,117.41,585,115.65,583.15,112.92Z"/><path class="cls-3" d="M521.65,124c.06-.84-.9-1.2-2.67-1.56a.76.76,0,0,0-.3,0c-11.59,2.82-25,2.71-36.8,2.62-13.35-.12-23.89-.2-27.53,3.92a.7.7,0,0,0-.11.72.67.67,0,0,0,.62.4c11.47.09,18.63-.12,23.86-.26,2.22-.07,4.09-.12,5.82-.14-7.13.67-7.12.77-7.12,1.52s0,.82,7,1.3c2.58.17,5.89.4,9.94.72,4.15-.3,4.48-.39,4.44-1.17,0-.28,0-.61-1.53-.8a1,1,0,0,0-.72-.6l4.72-.78c17.56-2.9,18.42-3.35,18.5-4.34a.86.86,0,0,0,0-.32C521.4,124.88,521.62,124.49,521.65,124Z"/><path class="cls-2" d="M526.67,140.07a1.4,1.4,0,0,0-1.35-1c-165.63,6.12-325.06-.54-464.85-104.61-7.83-7.26-13-9.66-16.37-7.55-7.8,4.94.36,33.16,11.84,69.55,2.78,8.79,5.17,16.39,6.48,21.52a1.35,1.35,0,0,0,.76.86,1.43,1.43,0,0,0,1.18,0,3.73,3.73,0,0,0,1.09-.63,72,72,0,0,1,1.08,11,1.36,1.36,0,0,0,0,.29c5.68,25.22,38.83,22.2,70.88,19.28,13.66-1.24,27.78-2.52,39.42-1.6,25.4,3,70.21,4.48,119.18,4.48,45.32,0,93.52,2.37,133.84-.24,13.28-1.23,28.44-.61,41.82-.06,21.06.87,48.63,3.2,53.35-2.82A11.74,11.74,0,0,0,526.67,140.07ZM155,95.07a.68.68,0,0,1,.86-.36c11.56,4.33,24.3,9.37,26.28,10.62a.67.67,0,0,1,.27.82.67.67,0,0,1-.63.43h-.12c-9.41-1.73-15.17-4.76-24.72-9.77l-1.64-.86A.67.67,0,0,1,155,95.07Zm-13.81-5c.09-.29.35-.63,1.12-.5.06,0,6.77,1.69,6.74,3.19a.66.66,0,0,1-.36.59.71.71,0,0,1-.31.08.64.64,0,0,1-.38-.12,12.32,12.32,0,0,0-3-.59.46.46,0,0,1-.22-.06C141.27,91,141,90.72,141.17,90.06ZM212,117.57c-.21.59-.82.86-2.11.86a17,17,0,0,1-2-.15c-15.42-1.78-94.8-25.36-95.55-32.42,0-.44.08-1.25,1.44-1.71a.72.72,0,0,1,.52,0c29.8,14.86,50.26,19.78,84.14,27.94l11.22,2.71a.7.7,0,0,1,.2.08C211.34,115.87,212.29,116.69,212,117.57Z"/><path class="cls-3" d="M505.15,87"/><path class="cls-3" d="M776.39,4.46c-1.1-1.41-3-2.18-6.13-2.51C747-.45,706.34.82,670.49,1.94c-31.54,1-61.33,1.92-73.37.13-56.29.58-113.49.07-168.83-.43C338,.83,252.77.06,197.44,4.69c-15-5.84-49.29-4-69.14,1.61-8.16-.74-16.8-1.74-25.3-2.73C83.29,1.28,69.13-.23,61.08.59v0C56.69.93,52.89,2.25,45,1.82c-8.68-1-13.41-.94-16-.3-9.27,0-30.54-7.45-27.91,10.74-.77,1-1.48,10.71-1,13.56,9.78,27.33-8,121.8,7.14,121.8,11.72,0,65.39,9.23,52.63-9C55.33,126,31.17,61.4,31.39,9.79,34.92,12,40.62,14.93,49.55,19c56.84,35.16,127.16,78.67,219,86.18a3.38,3.38,0,0,0-2.17,1.86c-.25.7-.28,1.8,1.06,3.07a1.3,1.3,0,0,0,.7.35c13.4,2.39,17,.75,19.66-.44s3.84-1.73,21.58,7.85c13.48,5.58,24.43,3.95,36,2.23,8.74-1.3,17.75-2.65,28.69-1.1a1.65,1.65,0,0,0,0,.86c.35,1.63,2.4,2,7.8,2.09a3.21,3.21,0,0,0-1.32,3.36,1.36,1.36,0,0,0,1.18,1.1,215.31,215.31,0,0,0,24.43,1.34c28.21,0,56.23-4.91,83.52-9.69,8.16-1.43,16.15-2.82,24-4C492.54,79,497.67,91,488,33.68c-.88-3.22,3.78-.26,4.92,3.18.15.48,3.4,10.73,3.48,11.12a10.64,10.64,0,0,1,1.44,3.29c7.28,17.43,11.59,38.18,27.36,59.37l1.28,1.51c8.49-1.11,16.74-1.92,24.67-2.2a.9.9,0,0,0,.28,0c52.16-13,112.41-29.65,167.12-61.49,2.3-.83,4.78-1.76,7.38-2.73,5-1.87,10.49-3.93,15.93-5.76-5.83,4.7-18,12.3-26.71,17.78C697.6,68.72,697,69.36,697.66,71c.33.83,1.14,1.13,2.39.88a1.4,1.4,0,0,0,.54-.25c5.35-4,15-8.3,25.31-12.89,22.14-9.9,47.25-21.12,50.68-36.67a1.18,1.18,0,0,0,0-.42,39.07,39.07,0,0,1,.46-9.56C777.52,8.89,777.88,6.36,776.39,4.46ZM37.24,90.08s1,5.45.21,7.82-8.87-32.75-9.62-49.09C24.31,28.6,25.33,28.26,26.11,28s1.5.8,2.09,2.06l.07.25c.38,5.76.61,10.91.82,15.45,0,1,.09,1.91.13,2.84C31.76,63.17,34.17,75.55,37.24,90.08Zm27-69.2c-1.58-.8-4.45-3.73-6.58-4.53-5-1.86-11.18-4.18-12.45-7.72v0c2-1.84,4.27-4.28,8.29-.66,1.17,1.07,3.31,1.52,4.68,2.21,4.2,3.34,11,8,20.2,15.35C76.61,26.19,68,22.82,64.22,20.88ZM206,87.54C172.11,74.28,132.9,71.83,102.45,42.11,101.36,36,174.42,78,187,77.77,202.76,83.31,210.81,85,206,87.54ZM237.71,95a1.43,1.43,0,0,0-.68.07c-3.54,1.33-11.37-.67-16.89-3.38-2.92-1.43-4.13-2.53-4.49-3a6.53,6.53,0,0,1,2.71-.2c6.45.43,17.77,4.48,22.29,6.88C239.92,95.33,239,95.23,237.71,95ZM761.58,26.58l-.06,0a10.53,10.53,0,0,0-2.19,2.08c-1.69,1.85-3.88,4.28-6.06,4.28a2.91,2.91,0,0,1-1.26-.3.28.28,0,0,1-.14-.16.3.3,0,0,1,0-.21C753.6,29.05,763.11,23,764.47,23h0a.39.39,0,0,1,.34.26C764.91,23.45,765,23.8,761.58,26.58Z"/><path class="cls-4" d="M224.29,292.26a4.41,4.41,0,0,1,1.75,2.41,8.13,8.13,0,0,1,.48,2.72,11.28,11.28,0,0,1-1.48,5.48,24.42,24.42,0,0,1-3.4,4.76l-1.52-.16q.24-1.12.48-2.4a13.86,13.86,0,0,0,.24-2.56,7.52,7.52,0,0,0-.72-3.32,3.2,3.2,0,0,0-4.22-1.65c-6.23,2.22-9.64,7.63-12.67,13.23a17.6,17.6,0,0,1-.92,1.58c-2.52,3.79-4.91,6.06-4.91,11,0,2.48.13,5.69,3.22,6a8.3,8.3,0,0,0,3.33-.51,47.68,47.68,0,0,0,16.33-8.95l2.16-.24,1.2,1a50.77,50.77,0,0,1-4.48,20.48,5.66,5.66,0,0,0-.12.84,8.13,8.13,0,0,0,0,.84l.64,7c.26,2.93-2.26,6.92-5.2,3.76-2.57-4.31-3.4-9.51-1.09-14.12.75-1.51,3.57-12.07-.17-10.62-2.6,1-4.73,3.71-7.46,4.86a23.2,23.2,0,0,1-9.12,1.72h-1.12a5.81,5.81,0,0,1-3.88-3.08c-1.83-4-1.07-8.3.66-12.16l1.57-3.48a8,8,0,0,1,.61-1.2c.26-.39.59-.73.87-1.09a17.49,17.49,0,0,0,1.55-2.6,45.85,45.85,0,0,1,8.77-11.08c4.31-4.19,8.45-9.58,15-9.27A7.56,7.56,0,0,1,224.29,292.26Z"/><path class="cls-4" d="M245.71,308.51a17.61,17.61,0,0,1,1.85,5.85c.34,3.35-2,4.57-3.92,6.8s-3.33,3.66-6.38,4.43c-.83.2-1.58.39-2.26.54v.32a2,2,0,0,0,2.06,2.28c4.2.31,9.49-2.2,12.15-5.32a27.31,27.31,0,0,0,1.83-2.34c.47-.67.78-1,.94-1,.41,0,.65.13.7.39a4.13,4.13,0,0,1,.08.78,3.75,3.75,0,0,1-.24,1.28c-.15.44-.31.87-.46,1.29l-.24.85a23,23,0,0,1-6.07,6.43c-3.84,2.66-10.6,6.44-15.12,3.34-3.86-2.64-4.44-8.47-3.78-12.69.74-4.69,4.94-9.81,8.69-12.58C237.68,307.57,243.9,305.22,245.71,308.51Zm-10.93,9.13c-.05.27-.09.55-.13.83a1.88,1.88,0,0,0,.33,1.69,1.37,1.37,0,0,0,.75.32,6.3,6.3,0,0,0,4.08-1.17,7,7,0,0,0,3.19-3c1.66-4-4.46-5.6-6.67-2.74A9.1,9.1,0,0,0,234.78,317.64Z"/><path class="cls-4" d="M268.92,310a9.39,9.39,0,0,1,6.73,2.57c2.39,2.46,2.76,6.36,1.81,9.66-1.15,4-5.56,12-10.06,13.09a25.63,25.63,0,0,1-8.2,1.16,7.07,7.07,0,0,1-2.36-.5c-2-.89-3-3.15-3.33-5.3-.83-5.15-1.41-10.22,2.07-14.54a17.66,17.66,0,0,1,12.36-6.1C268.26,310,268.59,310,268.92,310Zm-9.05,9.77a7,7,0,0,0-.08,2.95,23.16,23.16,0,0,0,.92,3.78,2.28,2.28,0,0,0,1.77,1.78c2.57.93,5.72,1.09,7.78-.7,1.71-1.49,2.23-3.94,2.11-6.2a4.44,4.44,0,0,0-.4-1.84,3.64,3.64,0,0,0-2.31-1.73c-2.21-.62-7.21-1-9,.65A3,3,0,0,0,259.87,319.76Z"/><path class="cls-4" d="M307.57,308.45a8.16,8.16,0,0,1-2.73,2.35c-1.34.61-2.81.93-4.1,1.64-2.9,1.59-4.83,5-8.1,5.46a1.31,1.31,0,0,1-1.38-.46,1.41,1.41,0,0,1-.06-.89,8.4,8.4,0,0,1,1-2.7c-1.48-1-3.5.13-4.66,1.49a12.45,12.45,0,0,0-3,7.72,2.65,2.65,0,0,0,3.68,3.11c3.73-.86,6.83-3.44,10.45-4.68a1.56,1.56,0,0,1,1.53.05c.51.44.28,1.27,0,1.87-2.81,5.32-8.85,7.88-14,11.06,5.67,1.66,11.11,4.69,14.66,9.42s4.93,11.29,2.6,16.72a17,17,0,0,1-8.44,8.36,27,27,0,0,1-11.81,2.32,38.69,38.69,0,0,1-21.91-7.13,35.43,35.43,0,0,1,1.64-7.41,3.59,3.59,0,0,1,1.48-2.2c1.28-.66,2.84.37,3.53,1.63s.87,2.75,1.55,4c1.44,2.7,4.75,3.76,7.78,4.18a36.27,36.27,0,0,0,17.72-2c1.2-.46,2.51-1.1,2.95-2.31a4.46,4.46,0,0,0-.49-3.27,23.67,23.67,0,0,0-14.44-12.56c-1.41-.42-3-.78-3.87-1.95a4.17,4.17,0,0,1-.16-4.25,12.31,12.31,0,0,1,2.85-3.43c-2.84-1.35-3.68-5-3.55-8.16a24.38,24.38,0,0,1,4.32-12.82c2.23-3.24,6.88-8.25,9.35-2.79,1.52,3.36,8-1.5,9.86-2.54C302.73,307.86,309.94,304.8,307.57,308.45Z"/><path class="cls-4" d="M312.17,313.28a7.91,7.91,0,0,1,2.72,1.54,2.62,2.62,0,0,1,.78,1l.7,1.08a44.17,44.17,0,0,1,4.35-4.3c3.45-2.82,10.08,1.45,10.66,5.46.19,1.26.71,3.48.08,4.67-.9,1.67-2.69.16-3.49-.71a8.87,8.87,0,0,0-2-2c-1.34-.71-3-1.75-4.58-1.66a2.35,2.35,0,0,0-1.72.78,8.62,8.62,0,0,0-1.77,6.24c0,.77,1,5.53.55,5.82-2,.86-2.8,3.8-4.88,4.28s-3.51-1.81-3.79-3.63c-.49-3.31-.82-6.61-1.41-9.91-.51-2.89-5,2.45-5.64,3.23a21.41,21.41,0,0,1-.43-4.21,11.58,11.58,0,0,1,2.73-4.16C306.78,314.89,309.29,312.45,312.17,313.28Z"/><path class="cls-4" d="M351.6,307.74c1,2.27,1.18,5.17,1.42,7.28.2,1.71.68,12,3.19,12.13.48,0,.86-.4,1.17-.78l5.33-6.74a1.72,1.72,0,0,1,1.18,1.79,4.83,4.83,0,0,1-.83,2.15,55.65,55.65,0,0,1-5.86,8c-1.18,1.34-2.59,2.71-4.37,2.88a5.17,5.17,0,0,1-4.5-2.46,14.93,14.93,0,0,1-1.9-5c-1.73.82-2.94,2.4-4.27,3.77s-3,2.65-4.93,2.56a5.19,5.19,0,0,1-4.34-3.6,11.59,11.59,0,0,1-.2-5.91,32.75,32.75,0,0,1,6-14c2.16-2.89,7.25-7.57,11-4.73A6.25,6.25,0,0,1,351.6,307.74Zm-10.62,8a21.17,21.17,0,0,0-.24,7.77,1.43,1.43,0,0,0,.27.66,1,1,0,0,0,1.39,0c2.46-1.79,5.87-14.26.4-11.71C341.56,313.05,341.22,314.47,341,315.71Z"/><path class="cls-4" d="M394.16,316.47a8.73,8.73,0,0,1-.89,6.53,17.23,17.23,0,0,1-13.69,9.19c-1.87.15-4,.09-5.29,1.45a6,6,0,0,0-1.23,2.72,49.71,49.71,0,0,0-.72,20.57c.67,3.8,1.78,7.73-.86,11.36-1.06,1.46-2.21,2.46-3.87,1.75-.06,0-.89-.28-.94-.31-.44-.34-.37-1.12-.54-1.42a2.53,2.53,0,0,1-.26-1.27l1.29-18.58.78-11.23c.4-5.73.78-11.62-.86-17.13l-3.23,3.42c-.28.29-.63.61-1,.55s-.7-.64-.76-1.13c-.76-6.34,8.58-10,13.61-9.24a5.72,5.72,0,0,0,1.48.11,5.54,5.54,0,0,0,1.42-.43,18.29,18.29,0,0,1,9.66-1c2,.36,4.18,1.17,5.34,2.89A5.66,5.66,0,0,1,394.16,316.47Zm-19.37,8.75a2.16,2.16,0,0,0,.39.86,3.24,3.24,0,0,0,2.54,1,10.48,10.48,0,0,0,6.84-2.89,2.74,2.74,0,0,0,1-1.43,2.3,2.3,0,0,0-.89-2c-3.05-2.77-8.42-1.1-9.77,2.64A3.15,3.15,0,0,0,374.79,325.22Z"/><path class="cls-4" d="M409.91,278.16a5.82,5.82,0,0,1,.8,1.31,3.49,3.49,0,0,1-.21,3.46,9.22,9.22,0,0,1-2.32,1.6c-2.09,1.41-2.91,4-3.51,6.48a121.92,121.92,0,0,0-3.49,26.41,13.2,13.2,0,0,1,8.22-4.26,5.3,5.3,0,0,1,4.11.88,6.12,6.12,0,0,1,1.59,2.76,45.87,45.87,0,0,1,2.24,9.6l5.68-6.78c1.07.48.75,2.07.23,3.12A89.82,89.82,0,0,1,417,333.59a9,9,0,0,1-2.23,2.53,3.31,3.31,0,0,1-3.21.45c-1.27-.6-1.77-2.11-2.11-3.47A94.25,94.25,0,0,1,407.31,322c-2.28.33-4,2.26-5.13,4.27s-1.95,4.23-3.46,6c-.8.91-2.35,1.61-3.08.65a2.33,2.33,0,0,1-.3-1.41c0-10.62,1.51-21.21,1.43-31.84a86,86,0,0,1,.19-11c.56-4.58,3.11-13.07,9.15-12.53A5.68,5.68,0,0,1,409.91,278.16Z"/><path class="cls-4" d="M442.33,307.82a9.58,9.58,0,0,1,.69,1.4,13.72,13.72,0,0,1,1.29,4.44c.15,2.92-1.62,5.67-3.91,7.5a34,34,0,0,1-7.76,4.07,2.23,2.23,0,0,0-1.18.87,1.51,1.51,0,0,0,.56,1.83,3.51,3.51,0,0,0,2,.51c6,.13,11-4.49,15.21-8.8.89,2.4-.5,5-2.14,7a25.76,25.76,0,0,1-12,8c-2.42.76-5.14,1.14-7.45.08-3.15-1.44-4.65-5.15-4.88-8.61-.56-8.66,5.8-18.44,14.68-19.9a5,5,0,0,1,4.2.78A3.21,3.21,0,0,1,442.33,307.82Zm-11.52,9.8c-.22,1.72.35,3.16,2.67,2.81s5.62-2.48,5.91-4.95c.49-4.18-5.2-4.38-7.09-1.67A9.34,9.34,0,0,0,430.81,317.62Z"/><path class="cls-4" d="M514.71,289.93a9.91,9.91,0,0,1,.59,8.58c-1.23,3.26-3.74,5.88-6.38,8.16a12.24,12.24,0,0,1,8,.7,9.15,9.15,0,0,1,5.06,6.11c.72,3.27-.68,6.68-2.65,9.4-5.08,7-13.76,10.75-22.37,11.81-5.31.65-10.88.37-15.68-2-3.08-1.5-5.72-3.8-8.81-5.28a6.45,6.45,0,0,1-2.77-1.86,4,4,0,0,1-.59-1.79,7.55,7.55,0,0,1,1.5-5.45c.85-1.1,2.3-2,3.58-1.46a4.66,4.66,0,0,1,1.81,1.94c4,6.05,11.81,8.42,19.07,8.89,5.41.36,11.09-.18,15.71-3a7.33,7.33,0,0,0,2.71-2.59,3.37,3.37,0,0,0-.1-3.58,4.92,4.92,0,0,0-3.15-1.5,37.93,37.93,0,0,0-4.5-.58,6,6,0,0,0-4.15.79,6.12,6.12,0,0,0-1.83,3.49,8.07,8.07,0,0,1-1.58,3.65c-.93,1-2.69,1.29-3.55.26-1.48-1.76,1.14-4.9-.41-6.6-.35-.38-.85-.59-1.21-.95a2.62,2.62,0,0,1-.36-2.74,9.48,9.48,0,0,1,1.63-2.41,26.72,26.72,0,0,0,5.54-12.67c.26-1.69,1-4.58-.88-5.56a3.12,3.12,0,0,0-4,1.73c-.45,1.57.3,3.73-1.1,4.58-.91.56-2.09,0-3-.53-1.51-.94-3.13-2.31-3-4.09a4.61,4.61,0,0,1,1.23-2.59c3.82-4.68,10.13-6.75,16.17-6.78,3.06,0,6.35.54,8.5,2.7A7,7,0,0,1,514.71,289.93Zm-11.48,16a5.43,5.43,0,0,0,2-1.48,19,19,0,0,0,2-2.56,22.83,22.83,0,0,0,1.56-2.76,5.47,5.47,0,0,0,.64-2.16v-.48a2.17,2.17,0,0,0-.08-.64,2.61,2.61,0,0,0-.92-1.4,2.65,2.65,0,0,0-1.64-.52,1,1,0,0,0-.4.08,1.19,1.19,0,0,1-.48.08l-.56.4L504,303.15Z"/><path class="cls-4" d="M540.31,307.84a13.51,13.51,0,0,1,.58,1.73c1.46,5.31,1.3,11,3,16.22.23.68.72,1.5,1.43,1.35a1.58,1.58,0,0,0,.81-.62c1.68-2.06,3.36-4.11,5-6.17a1.35,1.35,0,0,1,.56-.48c.48-.15,1,.32,1.07.82a3,3,0,0,1-.3,1.57,30.49,30.49,0,0,1-6.1,9.41,9.93,9.93,0,0,1-3.2,2.42,4.8,4.8,0,0,1-6.09-2.29,15.16,15.16,0,0,1-1.48-4.42c-3.62.68-5.1,6-8.78,6.28a4.83,4.83,0,0,1-4.41-2.76,10.74,10.74,0,0,1-.9-5.39c.31-7.1,3.77-16.45,10.34-20.15,2.11-1.18,5-1.39,6.81.16A6.05,6.05,0,0,1,540.31,307.84Zm-10.18,7.93a12.23,12.23,0,0,0-.56,2.11c-.33,2.16-.64,4.44.2,6.45a.6.6,0,0,0,.23.33c.22.14.49,0,.71-.15,2.62-1.81,6.37-8.71,3.16-11.63C532.22,311.39,530.86,313.7,530.13,315.77Z"/><path class="cls-4" d="M564,310.38a8.87,8.87,0,0,1,1.23,4.28,11.15,11.15,0,0,0,.35,3,2.77,2.77,0,0,0,2.1,2c1.21.16,2.28-.83,2.9-1.88a16,16,0,0,1,1.87-3.15c.85-.88,2.43-1.26,3.25-.35a3,3,0,0,1,.6,1.44,26.48,26.48,0,0,1,.55,6.15c-.05,2.12-.22,4.59,1.39,6a6.1,6.1,0,0,1,1.22,1c.54.78.26,1.84.08,2.78-.68,3.63.46,7.32,1,11a32.19,32.19,0,0,1-2.39,17.25c-2,4.55-5.57,8.94-10.48,9.65-3.46.51-6.94-.92-9.81-2.9A26.38,26.38,0,0,1,548,353.82a10.79,10.79,0,0,1-.66-6.13,11.77,11.77,0,0,1,3.53-5.33,45.38,45.38,0,0,1,16.72-10.44,4.94,4.94,0,0,0,1.52-.72c1.53-1.2,1.1-3.59.52-5.45A12.3,12.3,0,0,1,559,328.42,10.25,10.25,0,0,0,557.29,317L551,324.27c.34-.39.14-2.92.26-3.57a15.52,15.52,0,0,1,1.41-4.13,22.77,22.77,0,0,1,4.93-6.75,4.79,4.79,0,0,1,4.38-1.07A3.9,3.9,0,0,1,564,310.38Zm7.36,52.05a4.63,4.63,0,0,0,2.88-3.2L573,339.71a3.3,3.3,0,0,1-.8-1,11.1,11.1,0,0,0-.68-1.12,6.42,6.42,0,0,0-.76-.92,1.39,1.39,0,0,0-1-.4,10,10,0,0,0-4.16,1,24,24,0,0,0-4.44,2.72,34.13,34.13,0,0,0-4.16,3.76,32.39,32.39,0,0,0-3.4,4.24q3.36,11,13.44,15A14.26,14.26,0,0,0,571.35,362.43Z"/><path class="cls-4" d="M541.4,358.9l.43.05a966.55,966.55,0,0,0-149-14.21,392.25,392.25,0,0,0-44,1.21,207.8,207.8,0,0,0-22.19,3.26c-2,.42-8.21.71-9.37,2.72-2,3.48,3.13,2.68,5.2,2.14,15.29-4,31.12-5.28,46.88-5.88C426.78,346,484.22,352.34,541.4,358.9Z"/><path class="cls-5" d="M203.67,307.16"/></svg>