<svg id="a" xmlns="http://www.w3.org/2000/svg" viewBox="0 0 454.99 169.08"><defs><style>.d{stroke-width:0;fill:#1d3d71}</style></defs><path class="d" d="M33.09 118.45s37.7-25.31 105.57-26.23c67.88-.91 104.65 26.28 222.15 24.7 20.98-.28 38.54-3.02 53.24-7.34 0 0-51.62 23.23-119.97 23.65-76.61.46-95.32-15.1-154.67-23.77-59.08-8.63-106.32 8.99-106.32 8.99"/><path d="M122.96 132.19s30.09-14.9 89.06-15.69c58.97-.8 94.63 19.02 196.72 17.65 18.23-.25 33.49-2.63 46.25-6.38 0 0-44.85 19.74-104.23 20.54-53.28.72-99.83-12.04-140.16-16.68-51.54-5.93-87.64.56-87.64.56" stroke-width="0" fill="#1578bc"/><path d="M0 132.78s29.99-16.89 90.84-17.71c60.85-.82 97.63 18.43 202.98 18.21 22.38-.05 46.36-3.3 61.68-6.36 0 0-53.49 20.91-121.25 22.9-54.96 1.62-103.26-14.35-144.87-19.14C36.2 124.56 0 132.78 0 132.78" fill="#e59800" stroke-width="0"/><path d="M59.56 154.96s36.15-17.92 94.02-19.33c62.63-1.53 85.28 20.94 185.48 19.48 17.89-.26 32.87-2.62 45.39-6.31 0 0-44 20.28-102.29 20.28-46.11 0-88.02-13.52-136.74-17.67-50.74-4.32-85.88 3.55-85.88 3.55" fill="#f4c000" stroke-width="0"/><path class="d" d="M137.12 30.27c3.2 0 6.28-.58 9.24-1.85l2.59-8.62-1.23-.41c-1.89 4.6-4.64 8.99-10.27 8.99-6.74 0-10.64-7.1-10.64-13.1 0-6.32 3.41-12.44 10.27-12.44 5.17 0 7.97 3.49 8.95 8.13h1.23V3.08c-3.04-1.52-6.45-2.14-9.82-2.14-8.95 0-17.29 5.38-17.29 15.07s8.13 14.25 16.96 14.25zm24.31-1.68c-3.16-.9-3.16-.82-3.16-4.19v-8.26l.16-4.93-.82-.62-6.65 2.79v.66c2.46 1.81 2.46 1.15 2.46 4.03v6.32c0 3.24 0 3.37-3.12 4.19v.99h11.13v-.99zm-5.75-21.77c1.64 0 3-1.31 3-2.92s-1.36-2.96-3-2.96-3 1.36-3 2.96 1.36 2.92 3 2.92zm8.5 17.17c0 3.2 0 6.16 4.03 6.16 1.31 0 2.59-.16 3.9-.45 1.27-.29 2.55-.66 3.74-1.07v-1.11h-1.6c-5.34 0-5.22-1.73-5.22-6.37v-7.19h6.82V11.7h-6.82V6.73h-.78l-7.23 6.24v.99h3.16v10.02zm16.55-6.49l5.83 13.72c-.57.99-1.89 4.56-3.12 4.56-.74 0-1.81-1.15-2.22-1.73-1.56.33-2.71 1.31-2.71 3s1.31 2.75 2.92 2.75c2.05 0 3.08-1.48 3.98-3.08 2.75-4.89 4.81-10.88 7.39-17 2.05-4.89 2.34-6.37 5.26-7.31v-.99h-8.38v.99c2.79.74 3.78.82 1.27 7.84l-1.81 5.13-3.12-7.56c-2.14-5.18-1.31-4.6 1.07-5.42v-.99h-10.55v.99c2.34.86 2.55 1.19 4.19 5.09zm34.09 12.65c5.75 0 10.68-3.82 10.68-9.73s-4.97-9.57-10.6-9.57-10.92 3.82-10.92 9.86 5.17 9.45 10.84 9.45zm-.25-17.83c4.11 0 5.5 5.17 5.5 8.62 0 2.96-1.07 7.72-4.93 7.72-4.15 0-5.75-5.13-5.75-8.46 0-3.12 1.52-7.89 5.17-7.89zm15.15 12.08c0 3.24 0 3.37-3.57 4.19v.99h12.94v-.99c-4.52-.9-4.52-.82-4.52-4.19V13.97h5.59v-2.26h-5.75c.08-1.52-.53-9.9 2.63-9.9 1.68 0 3.57 2.34 4.44 3.65 1.56.12 3.41-.7 3.41-2.46 0-2.3-3.08-3-4.93-3-6.24 0-10.27 5.01-10.23 10.92l-3.61 2.05v.99h3.61v10.43zm-108.3 22.39c0-3.42 2.38-6.03 5.91-6.03 5.97 0 7.36 5.28 8.46 10.03h1.74l.52-10.09c-2.96-1.74-6.38-2.61-9.86-2.61-7.07 0-14.43 4.29-14.43 12 0 11.48 19.07 10.67 19.07 20.46 0 3.77-2.84 6.26-6.67 6.26-6.84 0-11.07-6.44-12.99-12.12l-1.8.35 1.91 11.48c3.59 1.86 7.65 2.96 11.77 2.96 7.42 0 15.42-3.48 15.42-11.83 0-12.12-19.07-11.48-19.07-20.87zM158 52.07c-8.29 0-15.42 5.39-15.42 13.91s7.3 13.33 15.3 13.33 15.07-5.39 15.07-13.74-7.01-13.51-14.96-13.51zm.35 25.16c-5.85 0-8.12-7.25-8.12-11.94 0-4.41 2.14-11.13 7.3-11.13 5.8 0 7.77 7.3 7.77 12.17 0 4.17-1.51 10.9-6.96 10.9zm44.47-6.73V52.53l-12.23.99v1.39c5.45.87 5.39 1.28 5.39 6.32v12.81c-1.62.75-3.13 1.33-5.04 1.33-4.75 0-5.62-3.94-5.62-8.23V52.53l-11.36.99v1.39c5.04.7 4.52 1.97 4.52 6.32v7.19c0 2.61-.29 5.51 1.22 7.71 1.39 2.15 3.77 3.19 6.32 3.19 3.59 0 7.01-2.09 9.97-3.83l-.17 4 12.17-2.84v-1.51l-2.78.17c-2.72.17-2.38-2.78-2.38-4.81zm16.06-24.23h-1.1l-10.2 8.81v1.39h4.46v14.15c0 4.52 0 8.7 5.68 8.7 1.86 0 3.65-.23 5.51-.64 1.8-.41 3.59-.93 5.28-1.51V75.6h-2.26c-7.54 0-7.36-2.43-7.36-8.99V56.46h9.62v-3.19h-9.62v-7.01zm39.3 24.93v-8.12c0-2.67.12-5.68-1.51-7.94-1.33-1.86-3.83-3.07-6.09-3.07-3.65 0-7.07 1.86-10.14 3.71V44.59l.23-6.96-1.16-.87-9.39 3.94v.93c3.48 2.55 3.48 1.62 3.48 5.68v23.88c0 4.58 0 4.75-4.41 5.91v1.39h15.3V77.1c-4.06-1.28-4.06-1.16-4.06-5.91V57.34c1.33-.75 2.78-1.33 4.35-1.33 5.51 0 6.55 3.48 6.55 8.06v7.13c0 4.75 0 4.64-4.06 5.91v1.39h15.3v-1.39c-4.41-1.16-4.41-1.33-4.41-5.91zm30.67-10.84l.41 1.68c7.07-1.39 16.06-3.83 16.06-12.64 0-10.32-11.65-10.32-17.1-10.32h-18.03v1.62c7.13.99 7.65.81 7.65 9.51v15.42c0 10.49-.75 10.09-7.65 11.25v1.62h24.29v-1.62c-9.33-.7-8.99-3.36-8.99-11.25V41.4c6.43 0 11.13 2.84 11.13 9.51 0 5.16-2.96 8.17-7.77 9.45zm32.93 13.91c-7.01 0-10.61-5.97-10.43-12.29h17.16c-.23-6.2-3.77-9.91-10.26-9.91-7.48 0-13.51 6.78-13.51 13.91 0 7.54 5.57 13.33 12.87 13.33 5.1 0 9.16-3.42 11.94-7.3l-1.45-1.04c-1.8 2.03-3.54 3.3-6.32 3.3zm-4.75-20.12c3.07 0 4 3.13 4.29 5.57l-9.62.29c.58-2.61 2.09-5.85 5.33-5.85zm33.11-2.08c-4.12 0-6.96 4.17-8.99 7.07l-.12-.12.7-6.43-.93-.87-9.39 3.94v.93c3.48 2.55 3.48 1.62 3.48 5.68v8.93c0 4.58 0 4.75-4.41 5.91v1.39h17.68v-1.39c-6.43-1.28-6.43-1.16-6.43-5.91v-6.78c0-2.43.17-6.55 3.54-6.55 1.68 0 3.01 1.97 3.94 3.19 2.03-.99 4.64-3.25 4.64-5.68 0-1.8-1.86-3.3-3.71-3.3zm17.74-5.8h-1.1l-10.2 8.81v1.39h4.46v14.15c0 4.52 0 8.7 5.68 8.7 1.86 0 3.65-.23 5.51-.64 1.8-.41 3.59-.93 5.28-1.51V75.6h-2.26c-7.54 0-7.36-2.43-7.36-8.99V56.46h9.62v-3.19h-9.62v-7.01zm40.75 24.93v-8.12c0-2.67.12-5.68-1.51-7.94-1.33-1.86-3.83-3.07-6.09-3.07-3.65 0-7.07 1.86-10.15 3.71V44.59l.23-6.96-1.16-.87-9.39 3.94v.93c3.48 2.55 3.48 1.62 3.48 5.68v23.88c0 4.58 0 4.75-4.41 5.91v1.39h15.3V77.1c-4.06-1.28-4.06-1.16-4.06-5.91V57.34c1.33-.75 2.78-1.33 4.35-1.33 5.51 0 6.55 3.48 6.55 8.06v7.13c0 4.75 0 4.64-4.06 5.91v1.39h15.3v-1.39c-4.41-1.16-4.41-1.33-4.41-5.91z"/></svg>