<?xml version="1.0" encoding="UTF-8" standalone="no"?>
<!-- Created with Inkscape (http://www.inkscape.org/) -->

<svg
   xmlns:dc="http://purl.org/dc/elements/1.1/"
   xmlns:cc="http://creativecommons.org/ns#"
   xmlns:rdf="http://www.w3.org/1999/02/22-rdf-syntax-ns#"
   xmlns:svg="http://www.w3.org/2000/svg"
   xmlns="http://www.w3.org/2000/svg"
   xmlns:sodipodi="http://sodipodi.sourceforge.net/DTD/sodipodi-0.dtd"
   xmlns:inkscape="http://www.inkscape.org/namespaces/inkscape"
   width="60.799"
   height="59.744999"
   viewBox="0 0 16.086401 15.807531"
   version="1.1"
   id="svg24290"
   inkscape:version="0.92.0 r15299"
   sodipodi:docname="ghd.svg">
  <defs
     id="defs24284">
	
	
	
	
	
	
	
	
</defs>
  <sodipodi:namedview
     id="base"
     pagecolor="#ffffff"
     bordercolor="#666666"
     borderopacity="1.0"
     inkscape:pageopacity="0.0"
     inkscape:pageshadow="2"
     inkscape:zoom="9.0731129"
     inkscape:cx="29.8995"
     inkscape:cy="29.372499"
     inkscape:document-units="mm"
     inkscape:current-layer="layer1"
     showgrid="false"
     fit-margin-top="0"
     fit-margin-left="0"
     fit-margin-right="0"
     fit-margin-bottom="0"
     units="px"
     inkscape:window-width="1280"
     inkscape:window-height="744"
     inkscape:window-x="-4"
     inkscape:window-y="-4"
     inkscape:window-maximized="1" />
  <metadata
     id="metadata24287">
    <rdf:RDF>
      <cc:Work
         rdf:about="">
        <dc:format>image/svg+xml</dc:format>
        <dc:type
           rdf:resource="http://purl.org/dc/dcmitype/StillImage" />
        <dc:title></dc:title>
      </cc:Work>
    </rdf:RDF>
  </metadata>
  <g
     inkscape:label="Layer 1"
     inkscape:groupmode="layer"
     id="layer1"
     transform="translate(85.018052,-192.958)">
    <rect
       style="clip-rule:evenodd;fill:#ffffff;fill-rule:evenodd;stroke-width:0.26458332"
       x="-83.768158"
       y="193.09029"
       width="13.725525"
       height="15.542948"
       id="rect24292" />
    <polygon
       style="clip-rule:evenodd;fill:#004987;fill-rule:evenodd"
       points="54.396,2.207 5.983,2.207 5.983,57.297 54.396,57.297 "
       id="polygon24294"
       transform="matrix(0.26458333,0,0,0.26458333,-84.88576,192.96805)" />
    <path
       style="clip-rule:evenodd;fill:#ffffff;fill-rule:evenodd;stroke-width:0.26458332"
       inkscape:connector-curvature="0"
       d="m -76.975512,205.32277 c 4.369329,0 7.911571,-2.03782 7.911571,-4.55163 0,-2.51407 -3.542242,-4.55215 -7.911571,-4.55215 -4.369065,0 -7.910248,2.03808 -7.910248,4.55215 0,2.51381 3.541183,4.55163 7.910248,4.55163 z"
       id="path24296" />
    <path
       style="clip-rule:evenodd;fill:#8e9090;fill-rule:evenodd;stroke-width:0.26458332"
       inkscape:connector-curvature="0"
       d="m -76.975512,204.90049 c 3.963194,0 7.175764,-1.84864 7.175764,-4.12908 0,-2.28018 -3.21257,-4.12883 -7.175764,-4.12883 -3.962136,0 -7.174971,1.84865 -7.174971,4.12883 0,2.28018 3.212835,4.12908 7.174971,4.12908 z"
       id="path24298" />
    <path
       style="clip-rule:evenodd;fill:#ffffff;fill-rule:evenodd;stroke-width:0.26458332"
       inkscape:connector-curvature="0"
       d="m -79.559962,199.27016 c 0.154781,0.22093 0.296598,0.52943 0.2794,0.84931 l -1.2065,-0.005 c -0.0074,-0.2704 -0.180181,-0.5162 -0.424921,-0.64717 -0.205317,-0.0659 -0.40984,0.008 -0.573881,0.1225 -0.343959,0.38497 -0.278342,0.96705 -0.253471,1.47505 0,0.35269 0.146844,0.69586 0.449262,0.87683 0.312209,0.0818 0.640028,-0.0167 0.779728,-0.30321 0.01587,-0.0902 0.06482,-0.16351 0.04895,-0.27014 l -0.647435,-7.9e-4 v -0.8517 h 1.81901 v 2.31855 h -0.573352 c -0.08996,-0.13097 -0.09869,-0.31142 -0.196585,-0.44239 -0.434446,0.50086 -1.204383,0.59849 -1.827477,0.39344 -0.810419,-0.26247 -1.154906,-1.11337 -1.195917,-1.8923 -0.02461,-0.78714 0.17145,-1.49939 0.794809,-1.99893 0.810683,-0.54927 2.10476,-0.42651 2.728383,0.37624 z"
       id="path24300" />
    <path
       style="clip-rule:evenodd;fill:#ffffff;fill-rule:evenodd;stroke-width:0.26458332"
       inkscape:connector-curvature="0"
       d="m -72.90675,198.62616 c 0.711729,0.007 1.377156,0.12436 1.760273,0.79137 0.508265,0.73766 0.491331,1.94178 -0.02487,2.67071 -0.477043,0.64532 -1.158081,0.73871 -1.913466,0.74162 -0.338138,0.0109 -1.427692,0.0167 -1.413404,0.004 v -4.2029 c 0.48551,0 1.05357,-0.0111 1.591468,-0.005 z"
       id="path24302" />
    <polygon
       style="clip-rule:evenodd;fill:#ffffff;fill-rule:evenodd"
       points="32.108,37.288 32.108,31.046 28.136,31.064 28.148,37.288 23.411,37.288 23.411,21.433 28.148,21.433 28.148,27.193 32.097,27.208 32.108,21.433 36.726,21.433 36.726,37.288 "
       id="polygon24304"
       transform="matrix(0.26458333,0,0,0.26458333,-84.88576,192.96805)" />
    <path
       style="clip-rule:evenodd;fill:#8e9090;fill-rule:evenodd;stroke-width:0.26458332"
       inkscape:connector-curvature="0"
       d="m -72.425473,199.79483 c 0.263525,0.28654 0.33708,0.66331 0.329142,1.07288 -0.02513,0.30269 -0.123031,0.57389 -0.303477,0.81942 -0.229394,0.18785 -0.500063,0.26247 -0.819679,0.22939 v -2.37596 c 0.319616,-0.0495 0.574146,0.0659 0.794014,0.25427 z"
       id="path24306" />
  </g>
</svg>
