<svg width="73" height="18" viewBox="0 0 73 18" fill="none" xmlns="http://www.w3.org/2000/svg">
    <path d="M67.75 17.0832C70.792 17.0832 72.911 15.5094 72.911 13.2172C72.911 11.2506 71.7584 10.0913 69.3385 9.58327L67.8182 9.25915C67.0581 9.09865 66.6439 8.7496 66.6439 8.31016C66.6439 7.71023 67.2195 7.33936 68.1657 7.33936C69.2237 7.33936 70.2382 7.63855 71.4373 8.33354L72.4736 5.94938C71.3908 5.16245 69.9155 4.72302 68.2805 4.72302C65.3067 4.72302 63.3708 6.25013 63.3708 8.63584C63.3708 10.5338 64.5001 11.6449 66.8983 12.1295L68.3022 12.4302C69.2469 12.639 69.5696 12.918 69.5696 13.4712C69.5696 14.0742 68.9026 14.4217 67.7034 14.4217C66.7122 14.4217 65.2602 13.8888 64.0394 13.08L63.0264 15.4876C64.0626 16.4599 65.8605 17.0599 67.75 17.0832ZM56.1124 14.1895C54.4293 14.1895 53.348 12.9632 53.348 10.9031C53.348 8.84309 54.4293 7.61517 56.1124 7.61517C57.7955 7.61517 58.8767 8.84309 58.8767 10.9031C58.8767 12.9632 57.7955 14.1895 56.1124 14.1895ZM56.8725 17.0832C59.6601 17.0832 62.1484 14.8159 62.1484 10.9031C62.1484 7.10718 59.8913 4.72302 56.9873 4.72302C55.4205 4.72302 54.2229 5.39464 53.4861 6.50568V-0.000101089H50.306V13.4945C50.306 14.6071 50.2595 15.5795 50.1679 16.7591H53.1619C53.2084 16.2963 53.255 15.8117 53.2782 15.2788C54.1314 16.4817 55.4438 17.0832 56.8725 17.0832ZM42.7234 14.1895C41.0418 14.1895 39.9591 12.9632 39.9591 10.9031C39.9591 8.84309 41.0418 7.61517 42.7234 7.61517C44.4065 7.61517 45.4909 8.84309 45.4909 10.9031C45.4909 12.9632 44.4065 14.1895 42.7234 14.1895ZM42.6086 17.0832C46.2044 17.0832 48.7625 14.6991 48.7625 10.9031C48.7625 7.10718 46.3192 4.72302 42.7234 4.72302C39.1989 4.72302 36.6859 7.31599 36.6859 10.9031C36.6859 14.5822 39.0826 17.0832 42.6086 17.0832ZM32.1469 17.0832C33.7354 17.0832 35.3735 16.5285 36.3632 15.6247L35.2122 13.1953C34.3357 13.7501 33.2079 14.121 32.3315 14.121C30.532 14.121 29.3825 12.8946 29.3825 10.9031C29.3825 8.98178 30.5103 7.6853 32.4913 7.6853C33.3227 7.6853 34.2892 8.05616 35.0958 8.58909L36.3632 6.06469C35.3502 5.18583 33.9681 4.72302 32.423 4.72302C28.4363 4.72302 26.1094 7.56843 26.1094 10.9031C26.1094 14.6991 28.413 17.0832 32.1469 17.0832ZM21.4773 12.5237C21.4773 14.0742 20.1634 14.5822 19.1038 14.5822C18.0211 14.5822 17.4207 14.1677 17.4207 13.2873C17.4207 12.5237 17.9063 11.969 19.2202 11.8989L21.4773 11.782V12.5237ZM22.0063 16.7591H25.0033C24.7722 15.7883 24.6108 14.1895 24.6108 13.08V9.35265C24.6108 6.48231 22.8362 4.72302 19.7042 4.72302C16.3147 4.72302 14.841 6.87499 14.6114 8.58909H17.6053C17.7915 7.82398 18.4585 7.33936 19.6095 7.33936C20.7404 7.33936 21.4773 7.91748 21.4773 9.07527V9.56145L18.5733 9.70014C15.508 9.8622 14.2639 11.4127 14.2639 13.4945C14.2639 15.7416 15.8539 17.0832 18.2739 17.0832C20.0718 17.0832 21.2244 16.2059 21.7999 15.4876C21.8465 15.9722 21.938 16.435 22.0063 16.7591ZM9.49529 6.41375H12.8584V-0.000101089H6.29193V3.19436H9.49529V6.41375ZM6.36019 17.0832C10.2321 17.0832 12.8584 14.3531 12.8584 10.5556V8.54235H9.49529V10.5556C9.49529 12.5471 8.2729 13.8436 6.36019 13.8436C4.56227 13.8436 3.52603 12.7076 3.34143 11.1119H0C0.184601 14.6071 2.6961 17.0832 6.36019 17.0832Z" fill="#141414"/>
</svg>
