<?xml version="1.0" encoding="utf-8"?>
<!-- Generator: Adobe Illustrator 15.1.0, SVG Export Plug-In  -->
<!DOCTYPE svg PUBLIC "-//W3C//DTD SVG 1.1//EN" "http://www.w3.org/Graphics/SVG/1.1/DTD/svg11.dtd" [
	<!ENTITY ns_flows "http://ns.adobe.com/Flows/1.0/">
]>
<svg version="1.1"
	 xmlns="http://www.w3.org/2000/svg" xmlns:xlink="http://www.w3.org/1999/xlink" xmlns:a="http://ns.adobe.com/AdobeSVGViewerExtensions/3.0/"
	 x="0px" y="0px" width="202px" height="145px" viewBox="-10.337 -7.835 202 145" enable-background="new -10.337 -7.835 202 145"
	 xml:space="preserve">
<defs>
</defs>
<g>
	<g>
		<g>
			<path fill-rule="evenodd" clip-rule="evenodd" fill="#0096C4" d="M108.102,3.573c0.846,3.229-3.519,1.246-5.36,1.787
				c-3.758-0.113-4.282-3.46-8.04-3.573c-6.22,1.023-6.065,5.286-8.041,8.934c-1.689,0.99-4.22,1.14-6.253,1.787
				c-2.063,3.595-3.682,7.634-8.933,8.04c-3.923-0.246-4.272-4.065-7.147-5.36c-7.222-0.075-8.752,5.542-15.187,6.253
				c-2.431,2.631-4.092,6.032-5.36,9.827c-1.037,0.75-2.395,1.178-4.467,0.893c-0.47,4.294-2.566,6.963-3.573,10.72
				c-6.218,4.8-12.836,9.2-22.333,10.72c-4.347,0.716-4.083,6.042-10.72,4.467c-2.083,3.576,0.616,5.31,1.787,8.04
				c-0.469,4.936,1.38,7.553,2.68,10.72c0.766,2.85-1.406,2.763-1.787,4.467c2.604,3.352,5.582,6.33,8.934,8.933
				c2.384,9.825,7.8,16.618,10.72,25.907c-1.109,6.155,0.104,10.667,4.467,13.4c5.596-0.955,7.558-5.544,11.613-8.041
				c3.26,0.58,4.758-0.602,6.253-1.787c2.68,0,5.36,0,8.04,0c3.262-0.014,4.012-2.539,6.253-3.573
				c3.099-0.716,3.434,1.331,6.253,0.894c7.935-4.155,16.866-2.277,23.227-7.147c3.536,0.335,6.487,1.255,8.934,2.68
				c2.218-0.134,3.708,0.461,4.467,1.787c1.583,0.204,4.474-0.9,3.573,1.787c0.151,3.768-1.372-0.016-2.68,0
				c-1.322-0.465-2.251-1.322-3.573-1.787c-3.98,0.109-5.539-2.204-8.934-2.68c-3.917-0.047-5.31,2.433-8.04,3.573
				c-6.906-0.652-11.619,0.888-15.187,3.574c-3.071,0.391-5.007-0.353-7.147-0.894c-2.283-0.166-2.857,1.989-4.467,2.68
				c-6.011,2.58-13.324,1.517-18.76,4.467c-3.401,1.845-5.418,6.29-9.827,6.253c-5.825-0.429-4.685-7.822-8.04-10.72
				c-0.666-2.75,2.452-1.717,1.787-4.467c-3.412-9.393-7.849-17.761-12.507-25.907c-3.14-2.815-6.943-4.968-8.934-8.933
				c-0.946-3.329,1.881-2.884,2.68-4.467C4.011,68.953-0.194,64.82,0.007,56.281c1.985-2.068,3.483,0.303,6.253,0
				c3.454-0.12,3.523-3.624,6.253-4.467c10.516-1.396,18.234-5.589,23.227-12.507c0.251-3.025,1.421-5.13,0.893-8.934
				c1.151-1.231,3.88-0.884,6.253-0.893c2.516-9.694,11.36-13.058,20.547-16.081c4.904-0.14,4.835,4.693,8.933,5.36
				c6.007-1.14,4.726-9.568,12.507-8.934c-0.48-4.054,1.796-5.351,2.68-8.04C91.086,1.828,92.417-0.008,94.702,0
				C99.476,0.016,101.549,5.048,108.102,3.573z"/>
		</g>
	</g>
</g>
<path fill="#0096C4" d="M51.19,37.169h28.753v3.678h-3.441c-1.266,0-2.189,0.284-2.769,0.851c-0.58,0.567-0.87,1.43-0.87,2.59
	v35.596c0,4.931-1.78,8.992-5.339,12.182c-3.586,3.19-8.424,4.786-14.515,4.786c-5.616,0-10.184-1.522-13.705-4.568
	c-3.52-3.045-5.28-6.559-5.28-10.54c0-3.085,0.89-5.597,2.669-7.534c1.78-1.938,3.949-2.907,6.506-2.907
	c2.188,0,4.034,0.731,5.537,2.195c1.503,1.463,2.254,3.25,2.254,5.359c0,2.004-0.541,3.613-1.622,4.825
	c-1.082,1.213-2.387,1.819-3.916,1.819c-0.343,0-0.817-0.053-1.424-0.158c-0.817-0.184-1.398-0.277-1.74-0.277
	c-0.712,0-1.213,0.132-1.503,0.396c-0.291,0.291-0.435,0.738-0.435,1.345c0,1.529,0.777,2.848,2.333,3.955
	c2.083,1.45,4.574,2.175,7.475,2.175c3.217,0,5.735-1.048,7.554-3.144c1.819-2.097,2.729-5.135,2.729-9.117V44.288
	c0-1.187-0.284-2.057-0.85-2.61c-0.567-0.554-1.404-0.831-2.512-0.831H51.19V37.169z"/>
<path fill="#0096C4" d="M88.17,37.169h34.251c5.8,0,10.467,1.556,14.001,4.667c3.533,3.111,5.3,6.921,5.3,11.43
	c0,3.428-1.022,6.427-3.065,8.998c-2.043,2.57-4.785,4.436-8.227,5.596c-3.44,1.161-6.849,1.74-10.224,1.74h-10.837v19.063
	c0,1.055,0.303,1.873,0.91,2.452c0.606,0.58,1.384,0.87,2.333,0.87h6.724v3.678H88.17v-3.678h5.221c1.16,0,2.037-0.29,2.63-0.87
	c0.594-0.58,0.89-1.397,0.89-2.452V44.09c0-1.002-0.303-1.793-0.91-2.373c-0.607-0.58-1.345-0.87-2.215-0.87H88.17V37.169z
	 M109.369,66.001h7.238c2.531,0,4.779-0.54,6.744-1.622c1.964-1.081,3.361-2.393,4.192-3.935c0.83-1.543,1.246-4.041,1.246-7.495
	c0-4.746-1.279-8.094-3.836-10.046c-1.873-1.397-5.063-2.096-9.571-2.096c-2.61,0-4.265,0.217-4.964,0.653
	c-0.699,0.435-1.048,1.18-1.048,2.234V66.001z"/>
<path fill="#0096C4" d="M157.036,37.169h28.753v3.678h-3.441c-1.266,0-2.189,0.284-2.769,0.851c-0.58,0.567-0.87,1.43-0.87,2.59
	v35.596c0,4.931-1.78,8.992-5.339,12.182c-3.586,3.19-8.424,4.786-14.515,4.786c-5.616,0-10.184-1.522-13.705-4.568
	c-3.52-3.045-5.28-6.559-5.28-10.54c0-3.085,0.89-5.597,2.669-7.534c1.78-1.938,3.949-2.907,6.506-2.907
	c2.188,0,4.034,0.731,5.537,2.195c1.503,1.463,2.254,3.25,2.254,5.359c0,2.004-0.541,3.613-1.622,4.825
	c-1.082,1.213-2.387,1.819-3.916,1.819c-0.343,0-0.817-0.053-1.424-0.158c-0.817-0.184-1.398-0.277-1.74-0.277
	c-0.712,0-1.213,0.132-1.503,0.396c-0.291,0.291-0.435,0.738-0.435,1.345c0,1.529,0.777,2.848,2.333,3.955
	c2.083,1.45,4.574,2.175,7.475,2.175c3.217,0,5.735-1.048,7.554-3.144c1.819-2.097,2.729-5.135,2.729-9.117V44.288
	c0-1.187-0.284-2.057-0.85-2.61c-0.567-0.554-1.404-0.831-2.512-0.831h-5.893V37.169z"/>
<path id="WA_1_" display="none" fill="none" stroke="#000000" stroke-width="2" d="M121.559,159.153v-35.885l0,0V46.345h-1.151
	l-0.374-0.403l-0.777-0.172l-1.18,0.172l0.777,0.605l0.202,0.777l-0.777-0.979l0.575,0.979l-0.201-0.202l-0.202,0.403l-0.375-0.403
	l-0.202,0.806l-0.402-1.007l-0.375,0.604l0.979,2.733h-0.402l-0.202-0.978l-0.979-0.979v1.583l-0.576,0.576l0.375-0.777
	l-0.375-0.605l0.375-0.172l-0.202-1.18l0.604-1.381h-0.402l0.805-0.202l-0.403-0.575l0.403-0.201l-1.381-0.979l-0.201,0.403
	l-1.755-2.762l-1.382-0.777l-0.201-0.777l-0.575-0.202l0.201,0.576l-0.604-0.576l-0.403,0.374v-0.374l-0.373,0.374l-0.404-0.978
	l-1.18-0.375v0.375l-0.777-0.173l0.403,0.978l0.777,0.375l-0.345-0.028l-1.036-0.174l0.202,0.605l-0.403,0.403l-0.172-0.403
	l-0.201,1.18l-0.604-1.18l-0.374,0.201l0.374-0.978l-1.18,0.777l-0.172,0.403l0.374,0.375l-0.777,0.402l-0.202-0.979h-0.374
	l0.374-0.403h-0.374l0.374-0.403l-0.575,0.403l-0.604-0.201v0.403l-0.173-0.403v0.403l1.151,0.575l-0.777,0.604l0.202,0.575
	l-0.576,0.403l0.374,0.777h-0.777v0.979l-0.604-0.576l0.201-0.777l-0.777,0.173v-0.576l-0.576,1.554l0.172-1.755l0.403-0.576
	l-0.777-0.404v2.159l-0.604-0.202l-0.375,0.777l-0.202-0.575l-0.402,0.403l0.202-0.806l-0.778,0.806l0.375,0.172l-1.18,0.604
	l0.604,0.777h0.576l-0.777,0.604l1.18,0.375l0.2-0.375l0.375,0.172l-0.777,0.806l0.979,0.375h-0.979l-0.375-0.576l-0.806,0.576
	l-0.575-1.353l-0.402,0.172l0.201,0.806l-1.18,0.173l0.403,0.201l-0.202,0.604l1.18-0.806l-1.18,1.007l0.403,0.374l0.978-0.575
	v0.375h0.374l-0.575,0.604l1.18,0.979l-0.979-0.777l-0.403,0.375l-0.403-0.777l-0.777-0.202v-0.403l-0.576,0.403l-0.402,0.777
	l-0.202-0.374l-0.201,0.576l-0.777-0.202l0.202,0.202l-0.777,0.604l0.375,0.173l-0.576,0.201l0.777,2.159l0.202-0.346v0.144
	l0.403-0.575l-0.345,0.316l0.518-0.92l0.604-0.375l-0.403,0.375h0.604l-0.806,0.604l-0.172,1.381h0.374l-0.777,0.374l0.403,0.202
	l-0.403,0.201L93.933,54l-0.375,1.755l1.353-0.201l0.777,0.402l-1.755,0.202l-0.375-0.403l-0.402,0.403l0.345,0.201l-0.921,0.173
	l0.576-0.173l-0.576-0.201l-0.604-0.777l-1.353-0.604l0.575,0.604h-0.402l0.402,0.575l-0.777-0.575v0.173l-0.979-0.374h0.374
	l-0.201-0.403h0.403l-0.777-0.403v0.403l-0.605-0.202l0.202,0.403l-0.374-0.403l0.374,0.605l-0.374,0.201l0.777,0.173l0.201,0.402
	l-0.604-0.202l0.604,0.403H89.04h-0.201h-0.777l0.978,0.575h-1.353l0.375,0.604l0.202-0.403l0.575,0.202l-0.777,0.576l1.381,0.402
	l0.374,1.18l0.807-0.403v-0.374l0.373,0.173l-0.978,0.978l0.403,0.403l-0.605-0.201l1.007,1.785l-1.784-1.785l-0.575,0.201
	l0.777,1.381l-0.403-0.202l-0.374,0.979v0.978l-1.18-1.18l-0.604-1.957l-0.777-0.575v-1.583h-0.576l-0.604-0.576l0.202-0.806
	l0.604-0.173l-0.402-0.604l-0.604,0.202l-1.151,1.957l0.576,0.604l-1.583-0.202l-0.173,0.576l0.375,0.777l-0.777-0.374v0.374
	l-0.777,0.202l-0.604,0.806l0.402,0.173l-0.978,0.806L79.63,63.41l0.575,1.381l-0.374,1.353l1.381,0.202v0.776l-2.762,1.986
	l-0.777,0.172l-0.604,0.806l0.402,0.576l-0.979,0.201l0.202,0.776l-0.979,1.785l-2.36,2.935l-5.496,2.36l-1.382,0.173h-1.352
	l-0.605,0.403l-0.776,0.576l-0.576-0.576l-1.784-0.403l0.201,0.403v0.201l-0.201-0.201l-0.375-0.202l-0.202,0.202l-1.381,1.755
	l-4.115,0.806v-0.403l-1.554,0.979l0.172,0.403h-0.575l-0.404,0.777l-0.978,0.202v-0.202l-1.554,0.777l-1.179-0.575l-0.202-0.604
	l-1.381,0.806l-0.575-0.201l-0.403-0.202l0.604-0.978h-0.402l-0.979,1.18l0.202,0.201h-0.403l-1.957,0.979l-0.605-0.403
	l-0.172,0.979l-1.583,0.777l-0.576,1.18l-0.978,0.202l-0.979,1.583l-3.742,0.979l-1.553,0.978l-0.202,1.18l-0.403,0.173
	l-0.403-0.173l0.201,0.777l-0.576,0.979l0.375,0.402l-0.375-0.201l0.202,0.374l-0.806,0.979l-0.374-0.575l-0.979,0.575l0.375-1.352
	l-0.375,0.374l-0.202-1.353l0.777-2.359l-1.381,0.402l-1.957,4.69l0.978,2.562l-0.374,1.18l0.201,2.331l-1.985,2.762l-0.374,3.511
	l1.554,2.562l-0.201,0.402l0.402,1.554l0.777,0.604l2.159,4.318l0.604,0.172l0.201,0.978h-0.604l0.202,2.159l-0.979,1.18
	l-0.979-1.554l-0.201-2.158v0.978l-0.979,0.777l0.202-2.159l-1.583-2.533l-0.576,1.555l0.374,0.403v-0.806l0.604,2.964l1.957,1.554
	l-0.202,1.784l-1.18,0.576l-0.201-1.381l-0.173,1.18l-0.403-2.36l-0.201,1.18l-0.777-3.137l0.201,2.562l-0.604-0.402v-2.159
	l-0.172,1.583l-0.806-0.604l5.094,7.454l1.18,3.137l-0.375,0.978l0.375,1.985l2.158,2.532l0.604,1.18l-0.202,0.777l1.756,2.36
	l0.806,2.763l-0.202,3.511v0.403l0.576,3.137l3.913,8.23l0.202,2.935l0.978-0.575v0.375l-0.978,0.201l0.201,0.979l-0.403,0.604
	l0.202,1.382l-0.777,1.554l0.575,4.518l-2.129,2.532h-1.007l-1.151-0.777v4.115l0.777,2.158l0.202-0.374l1.15-0.201l2.159,1.18
	l1.784,2.734l2.36,0.777l0.172-0.576l0.806,0.576h-0.978l1.554,0.978l0.604-0.576l1.151,0.576l2.763-0.374l1.554,0.979l0.402-0.806
	l1.756,0.604l0.402-0.201l-0.978-0.403l0.403-0.777l0.374-0.202l-0.201,0.806h1.583l-0.201-0.604l1.381-0.202l0.202-1.179
	l1.755-0.777l0.202-0.777l0.979-0.403l-0.403-0.374l2.561,0.777l0.201-0.777l0.777,0.201v-0.806l0.979,0.201l-0.777-0.777
	l2.734-2.561h0.575l2.562,0.403l0.978-0.777l4.921-0.604l2.533,0.777l1.381-0.575l0.777,1.381h0.978l0.403-0.806l1.352,0.403
	l0.202-0.575l2.562-0.202l0.575,0.374l0.202,0.806l1.381-0.979l0.979,0.374l2.733-2.733l0.807-3.137l0.777-0.806l3.54-1.151
	l7.05-4.144l1.554-0.375l2.964,0.375l3.31-0.173l6.302-1.957L121.559,159.153z M97.069,55.957l-0.978,0.403l-0.346-0.374
	l0.346,0.172L97.069,55.957z M24.721,119.302l-1.569-3.529v1.961l1.569,2.549V119.302z"/>
</svg>
