<svg width="169" height="51" viewBox="0 0 169 51" fill="none" xmlns="http://www.w3.org/2000/svg">
<g clip-path="url(#clip0_4580_292)">
<path d="M55.6582 38.0615H62.1812V0H55.6582V38.0615Z" fill="#3DB83D"/>
<path d="M74.937 22.6211C74.2468 22.6211 73.6857 22.0639 73.6857 21.3797C73.6857 20.6955 74.2468 20.1386 74.937 20.1386H82.712V13.6706H74.9216C70.6413 13.6785 67.1621 17.1337 67.1621 21.3797C67.1621 25.6308 70.6498 29.0891 74.937 29.0891C75.627 29.0891 76.1887 29.646 76.1887 30.3303C76.1887 31.0147 75.627 31.5716 74.937 31.5716H67.1621V38.0396H74.937C79.224 38.0396 82.712 34.5813 82.712 30.3303C82.712 26.0793 79.224 22.6211 74.937 22.6211Z" fill="#3DB83D"/>
<path d="M44.2134 26.9782C44.2134 29.5229 42.1254 31.5935 39.5589 31.5935H39.4571C36.8905 31.5935 34.8026 29.5229 34.8026 26.9782V13.6706H28.2793V26.9782C28.2793 33.0993 33.2838 38.0615 39.4571 38.0615H39.5589C45.7322 38.0615 50.7364 33.0993 50.7364 26.9782V13.6706H44.2134V26.9782Z" fill="#3DB83D"/>
<path d="M103.057 29.7225C101.998 30.8996 100.458 31.6427 98.7463 31.6427C95.5613 31.6427 92.9703 29.0733 92.9703 25.9152C92.9703 22.7572 95.5613 20.1878 98.7463 20.1878C100.712 20.1878 102.451 21.1673 103.494 22.659C104.142 23.5844 104.523 24.7062 104.523 25.9152C104.523 27.3758 103.968 28.7097 103.057 29.7225ZM98.7463 13.7198C91.9537 13.7198 86.4473 19.1798 86.4473 25.9152C86.4473 32.2761 91.3586 37.4987 97.6266 38.0597C97.9954 38.0929 98.3688 38.1107 98.7463 38.1107C100.834 38.1107 102.8 37.5942 104.523 36.684V38.0615H111.046V25.9152C111.046 19.1798 105.539 13.7198 98.7463 13.7198Z" fill="#3DB83D"/>
<path d="M12.2992 31.6427C10.5862 31.6427 9.04576 30.8986 7.98705 29.7203C7.07732 28.7079 6.5231 27.3748 6.5231 25.9152C6.5231 24.7067 6.90342 23.5852 7.55048 22.6601C8.59412 21.1676 10.333 20.1878 12.2992 20.1878C15.4842 20.1878 18.0752 22.7572 18.0752 25.9152C18.0752 29.0733 15.4842 31.6427 12.2992 31.6427ZM12.2992 13.7198C12.0769 13.7198 11.856 13.7259 11.6367 13.7374C10.5349 13.7955 9.4717 13.9977 8.46564 14.3246C3.55032 15.9222 0 20.5071 0 25.9152V51.0003L6.5231 44.532V36.6841C8.24543 37.5942 10.2113 38.1108 12.2992 38.1108C12.6767 38.1108 13.0499 38.0929 13.4188 38.0598C19.6866 37.4991 24.5984 32.2763 24.5984 25.9152C24.5984 19.1798 19.0918 13.7198 12.2992 13.7198Z" fill="#3DB83D"/>
<path d="M134.848 13.7198H128.325C121.532 13.7198 116.025 19.1798 116.025 25.9152V38.1107H122.549V25.9152C122.549 22.7572 125.14 20.1878 128.325 20.1878L134.848 13.7198Z" fill="#3DB83D"/>
<path d="M140.955 16.5577C140.431 16.0387 139.583 16.0387 139.059 16.5577L138.53 17.0822L135.395 20.1917L135.395 20.1919L139.059 23.8257C139.583 24.3446 140.431 24.3446 140.955 23.8257L143.672 21.1316C144.195 20.6124 144.195 19.7709 143.672 19.252L140.955 16.5577Z" fill="#3DB83D"/>
<path d="M149.107 8.47467C148.584 7.95549 147.735 7.95549 147.212 8.47467L146.683 8.99896L143.547 12.1084L143.547 12.1087L147.212 15.7424C147.735 16.2616 148.584 16.2616 149.107 15.7424L151.825 13.0484C152.348 12.5292 152.348 11.6877 151.825 11.1687L149.107 8.47467Z" fill="#3DB83D"/>
<path d="M157.26 0.391169C156.736 -0.128011 155.887 -0.128011 155.364 0.391169L154.835 0.915706L151.699 4.02518H151.699L155.364 7.65918C155.887 8.17811 156.736 8.17811 157.26 7.65918L159.977 4.96485C160.5 4.44592 160.5 3.60443 159.977 3.0855L157.26 0.391169Z" fill="#3DB83D"/>
<path d="M165.41 8.47442C164.886 7.9555 164.038 7.9555 163.515 8.47442L162.986 8.99896L159.85 12.1084H159.85L163.515 15.7424C164.038 16.2614 164.886 16.2614 165.41 15.7424L168.127 13.0481C168.651 12.5292 168.651 11.6877 168.127 11.1688L165.41 8.47442Z" fill="#3DB83D"/>
<path d="M157.259 16.5577C156.736 16.0387 155.887 16.0387 155.364 16.5577L154.835 17.0822L151.699 20.1917L151.699 20.1919L155.364 23.8257C155.887 24.3449 156.736 24.3449 157.259 23.8257L159.977 21.1316C160.5 20.6124 160.5 19.7709 159.977 19.252L157.259 16.5577Z" fill="#3DB83D"/>
<path d="M18.4514 45.2179L16.1311 50.9758H15.921L13.5912 45.2179V50.9758H13.0469V44.5077H13.8585L16.0261 49.7913L18.1841 44.5077H19.0053V50.9758H18.4514V45.2179Z" fill="#3DB83D"/>
<path d="M24.4219 44.5077H28.461V44.9998H24.9662V47.3864H28.3941V47.8785H24.9662V50.4833H28.461V50.9758H24.4219V44.5077Z" fill="#3DB83D"/>
<path d="M35.3348 48.8253H38.3809L36.8531 44.9998L35.3348 48.8253ZM38.5527 49.3178H35.163L34.5234 50.9758H33.9121L36.519 44.5077H37.1969L39.8036 50.9758H39.1925L38.5527 49.3178Z" fill="#3DB83D"/>
<path d="M45.3302 49.5651C45.7406 50.0384 46.409 50.4833 47.3163 50.4833C48.6245 50.4833 48.9966 49.764 48.9966 49.2245C48.9966 48.3343 48.1374 48.0966 47.2494 47.8599C46.2467 47.5853 45.1774 47.3576 45.1774 46.1933C45.1774 45.161 46.113 44.508 47.2684 44.508C48.2138 44.508 48.93 44.839 49.4263 45.3979L49.0635 45.7952C48.6052 45.2462 47.9558 44.9998 47.2399 44.9998C46.39 44.9998 45.7501 45.4828 45.7501 46.1647C45.7501 46.9126 46.5427 47.074 47.4117 47.3107C48.4334 47.5948 49.5696 47.9081 49.5696 49.1959C49.5696 50.0006 49.0254 50.976 47.3068 50.976C46.2562 50.976 45.4639 50.5591 44.9766 49.9721L45.3302 49.5651Z" fill="#3DB83D"/>
<path d="M55.207 44.508H55.761V48.4289C55.761 49.7069 56.4389 50.4833 57.69 50.4833C58.9406 50.4833 59.6187 49.7069 59.6187 48.4289V44.508H60.1724V48.4382C60.1724 50.0006 59.3323 50.976 57.69 50.976C56.057 50.976 55.207 49.9913 55.207 48.4382V44.508Z" fill="#3DB83D"/>
<path d="M68.2381 44.9998H66.4526V47.7177H68.2381C69.0783 47.7177 69.6513 47.1495 69.6513 46.3541C69.6513 45.5588 69.0783 44.9998 68.2381 44.9998ZM67.8562 48.2097H66.4526V50.976H65.9082V44.508H68.286C69.3841 44.508 70.2242 45.1991 70.2242 46.3541C70.2242 47.4996 69.4031 48.134 68.4578 48.1721L70.3006 50.976H69.6418L67.8562 48.2097Z" fill="#3DB83D"/>
<path d="M76.502 44.5077H80.541V44.9998H77.0461V47.3864H80.4742V47.8785H77.0461V50.4833H80.541V50.9758H76.502V44.5077Z" fill="#3DB83D"/>
<path d="M91.3636 45.2179L89.0434 50.9758H88.8331L86.5034 45.2179V50.9758H85.959V44.5077H86.7706L88.938 49.791L91.0962 44.5077H91.9173V50.9758H91.3636V45.2179Z" fill="#3DB83D"/>
<path d="M97.334 44.5077H101.373V44.9998H97.8781V47.3864H101.306V47.8785H97.8781V50.4833H101.373V50.9758H97.334V44.5077Z" fill="#3DB83D"/>
<path d="M107.769 45.3694V50.9758H107.225V44.5077H107.778L111.77 50.0382V44.5077H112.314V50.9758H111.779L107.769 45.3694Z" fill="#3DB83D"/>
<path d="M119.908 44.9998H117.826V44.5077H122.543V44.9998H120.461V50.9758H119.908V44.9998Z" fill="#3DB83D"/>
</g>
<defs>
<clipPath id="clip0_4580_292">
<rect width="168.522" height="51" fill="white"/>
</clipPath>
</defs>
</svg>
