<?xml version="1.0" encoding="UTF-8"?> <svg xmlns="http://www.w3.org/2000/svg" id="Layer_1" data-name="Layer 1" viewBox="0 0 164.04 32.02"><defs><style>.cls-1{fill:#5e5e5e;}.cls-2{fill:#1a203f;}.cls-3{fill:#fff;}.cls-4{fill:#1a81ea;}.cls-5{fill:#241ddf;}.cls-6{fill:#00ac85;}</style></defs><title>SciDev-logo</title><path class="cls-1" d="M99.87,4.61C104,4.14,108,3.77,112,4.85a10.18,10.18,0,0,1,7.71,9.68,21.07,21.07,0,0,1-.37,5.39,10.67,10.67,0,0,1-7.8,8.31c-3.83,1.12-7.69,1-11.67.52Zm2.94,21.84c5.67,1,10.26-.53,12.38-4.05s2-9.4-.26-12.49-7.33-4.32-12.12-3Z"></path><path class="cls-2" d="M18.51,15.29V.66H33.18V15.29ZM25.88,2.57l-3.6,4.55a3.87,3.87,0,0,0,.31,5.51,4.93,4.93,0,0,0,6.51.06,3.9,3.9,0,0,0,.34-5.62C28.23,5.56,27,4,25.88,2.57Z"></path><path class="cls-1" d="M129,17.92v9.21H139.4v2.39H126V5.09h2c3,0,6,0,9,0a4.89,4.89,0,0,1,2,1.1c0,1.78-9.4,1.28-10,1.32v8h3.82c1.48,0,2.95,0,4.43,0,.92,0,1.26.34,1.26,1.26s-.44,1.11-1.24,1.1C134.52,17.9,131.81,17.92,129,17.92Z"></path><path class="cls-1" d="M46.22,25.45a11,11,0,0,0,7.16,1.16,4.29,4.29,0,0,0,3.49-3.16,4.18,4.18,0,0,0-2-4.69A36.44,36.44,0,0,0,51.17,17c-2.22-1-4.31-2.14-5.1-4.66a6.19,6.19,0,0,1,4.4-7.93A11.56,11.56,0,0,1,59,5L58.3,7.15c-1.54-.28-2.95-.63-4.39-.75a7.26,7.26,0,0,0-2.65.35A3.4,3.4,0,0,0,48.8,9.8a3.43,3.43,0,0,0,1.55,3.46A36.52,36.52,0,0,0,53.63,15c1.06.54,2.17,1,3.19,1.59a6.33,6.33,0,0,1,3,7c-.49,2.84-2.46,4.44-5.12,5.18a13.21,13.21,0,0,1-7.6-.24C45.11,27.85,45,27.47,46.22,25.45Z"></path><path class="cls-1" d="M82.73,26l.59,2c-4.55,2.62-12.61,1.18-15.83-2.77C63.8,20.66,64,12.57,67.82,8.05,71.32,4,79,2.49,83.35,5.07l-.66,2.16c-5-1.36-9.68-1.57-13,3.16-2.43,3.42-2.38,9.4.12,12.72C73.18,27.65,77.83,27.28,82.73,26Z"></path><path class="cls-1" d="M92.15,28.71H89.34V4.41h2.81Z"></path><path class="cls-3" d="M25.88,2.57c1.16,1.47,2.35,3,3.56,4.5a3.9,3.9,0,0,1-.34,5.62,4.93,4.93,0,0,1-6.51-.06,3.87,3.87,0,0,1-.31-5.51Z"></path><rect class="cls-1" x="126" y="27.12" width="13.4" height="2.4"></rect><rect class="cls-1" x="126" y="15.51" width="13.4" height="2.4"></rect><rect class="cls-1" x="125.99" y="5.09" width="13.11" height="2.51"></rect><path class="cls-1" d="M153.13,25.63s-4.34-14-6.35-20.59h-3.23L144,6.36h0c2.47,7.55,7.5,22.55,7.5,22.55l3.24,0c2.11-6.26,4.9-13.9,7.12-20.12.29-.82.81-2.47,1.21-3.77h-3Z"></path><rect class="cls-4" x="1.9" y="0.59" width="14.73" height="14.74"></rect><rect class="cls-5" x="1.9" y="17.27" width="14.73" height="14.74"></rect><rect class="cls-6" x="18.41" y="17.27" width="14.73" height="14.74"></rect></svg> 