<?xml version="1.0" encoding="UTF-8"?>
<svg xmlns="http://www.w3.org/2000/svg" width="150" height="44" viewBox="0 0 150 44" fill="none">
  <path d="M52.3864 4.64677V11.0054H62.6743V39.3764H70.0892V11.0054H80.3982V4.64677H52.3864Z" fill="#2A3F52"></path>
  <path d="M105.769 28.6233L105.643 28.8345C105.389 29.257 104.988 29.8274 104.396 30.4189C101.882 32.9328 98.5869 32.9961 98.1433 32.9961C97.6574 32.9961 95.7561 32.975 93.7281 31.8343C93.3901 31.6441 92.2705 31.0104 91.2142 29.8274C89.482 27.8628 88.6159 25.2432 88.6159 22.0111C88.6159 18.779 89.482 16.1806 91.2142 14.1948C92.2282 13.033 93.3479 12.3781 93.7493 12.1668C95.9251 10.9627 98.1221 10.9627 98.1221 10.9627C98.5869 10.9627 100.742 10.9838 102.918 12.4203C104.354 13.371 105.199 14.5117 105.622 15.1877L105.748 15.399H113.776L113.565 14.8075C112.508 11.9556 110.776 9.6107 108.431 7.83619C105.854 5.89268 101.84 4.62518 98.2278 4.62518C94.6154 4.62518 92.1015 5.36456 89.5031 6.86444C86.947 8.32207 84.9401 10.4134 83.5247 13.0541C82.1093 15.6525 81.3911 18.6734 81.3911 22.0111C81.3911 25.3489 82.1093 28.3486 83.5247 30.9681C84.9612 33.5877 86.9892 35.6579 89.5242 37.1578C91.9959 38.5309 94.214 39.3337 98.2489 39.3337C102.284 39.3337 105.622 38.2774 108.452 36.1649C110.818 34.3904 112.551 32.0244 113.586 29.1936L113.797 28.6021H105.769V28.6233Z" fill="#2A3F52"></path>
  <path d="M146.604 13.0968L146.54 12.97C145.04 10.3294 142.907 8.25916 140.203 6.82266C137.478 5.38615 134.245 4.64677 130.633 4.64677H117.514V39.3764H130.633C134.203 39.3764 137.414 38.637 140.139 37.2005C142.907 35.7429 145.061 33.6726 146.519 31.0531C148.019 28.4336 148.801 25.3916 148.801 22.0116C148.801 18.6316 148.061 15.6529 146.582 13.0757L146.604 13.0968ZM125.183 33.0177V11.0054H130.718C134.309 11.0054 137.013 11.956 138.999 13.8996C140.963 15.8219 141.956 18.5682 141.956 22.0538C141.956 25.5395 140.963 28.2857 139.02 30.1447C137.055 32.046 134.267 32.9966 130.739 32.9966H125.204L125.183 33.0177Z" fill="#2A3F52"></path>
  <path d="M36.6734 14.6824C40.7294 14.6824 44.0038 11.408 44.0038 7.35199C44.0038 3.29598 40.7294 0.0215934 36.6734 0.0215934C32.6174 0.0215934 29.343 3.29598 29.343 7.35199C29.343 11.408 32.6174 14.6824 36.6734 14.6824Z" fill="#2A3F52"></path>
  <path d="M37.2224 18.3577C34.9197 18.3577 33.0396 20.1956 32.9762 22.4771C32.8495 25.4557 31.5186 28.2653 29.3216 30.2088C22.2236 36.5041 11.0484 31.5186 10.985 22.0123V11.0062H21.4208C23.7446 11.0062 25.6458 9.12603 25.6458 6.78115V0H0V18.3366C0.0633752 20.4913 -0.12675 23.5967 0.316876 25.667C1.11963 30.568 3.65464 35.1099 7.35152 38.4054C19.0337 48.82 37.5181 44.0669 42.7571 29.3427C43.581 26.9978 44.0035 24.5262 44.0035 22.0123V18.3366H37.2224V18.3577Z" fill="#0080FD"></path>
</svg>
