<svg width="140" height="40" viewBox="0 0 140 40" fill="none" xmlns="http://www.w3.org/2000/svg">
    <g clip-path="url(#clip0_1_577)">
        <path d="M0.193359 0.193385H9.44447L19.7511 21.3267L30.06 0.193385H64.76V6.80672H45.0756V12.4756H58.4623V18.4601H45.0756V24.6023H65.5489V31.6889H36.0978V6.78005L23.9489 31.6889H15.5534L0.193359 0.193385ZM134.051 31.6889H125.482L122.438 24.6023H107.242L104.198 31.6889H67.5956V0.193385H96.5712V6.80672H76.5712V24.6023H89.9578V18.4601H82.8712V12.4756H97.0445V28.3889L109.16 0.191162H120.522L134.053 31.6867L134.051 31.6889ZM119.969 18.4601L114.838 6.51783L109.707 18.4601H119.969Z" fill="#FFDE00"/>
    </g>
</svg>
