<svg
  role="img"
  aria-hidden="true"
  class="w-[106.72px] lg:w-[190px] h-[36px] lg:h-[64px]"
  xmlns="http://www.w3.org/2000/svg"
  viewBox="0 0 1523.9 513.375"
 >
<path fill="#0033a0" d="m180.165 36.262 21.465 41.53 35.143 68.123 29.145 56.462 31.8 61.707a191.271 191.271 0 0 1 25.43 89.278 164.01 164.01 0 0 1-6.58 44.954 162.142 162.142 0 0 1-289.781 43.209 156.369 156.369 0 0 1-26.334-73.54 153.569 153.569 0 0 1 3.008-44.213 280.424 280.424 0 0 1 24.866-65.115l11.507-22.281 41.9-81.379c6.965 12.841 13.537 25.815 20.258 38.722-1.445 3.208-3.208 6.417-4.809 9.632l-25.689 49.763-25.813 50.611a170.9 170.9 0 0 0-18.027 76.207 134.274 134.274 0 0 0 267.826-.259 162.354 162.354 0 0 0-15.138-69.687l-4.542-9.536-21.74-41.916-73.673-142.286-16.775-32.4c-7.75-14.589-15.234-29.3-22.829-43.968v-.326l20.2-39.152.274-.4c6.417 12.041 12.567 24.192 18.842 36.277"></path>
<path fill="#006ba6" d="M152.438 86.002c.408.882.86 1.741 1.349 2.579l29.008 56.194 27.467 52.978 34.632 67.1a309.7 309.7 0 0 1 26.171 56.964 108.3 108.3 0 0 1 3.912 48.162 113.985 113.985 0 0 1-128.652 95.938 116.024 116.024 0 0 1-87.033-61.647 114.451 114.451 0 0 1-12.2-45.806c-.326-38.211 18.442-68.664 34.447-100.192l24.792-48.481c.7-1.193 1.119-2.5 1.9-3.66 7.165 12.967 13.678 26.3 20.628 39.411l-.126.7-23.133 44.613c-12.937 26.86-30.12 51.985-29.831 84.187a83.965 83.965 0 0 0 49.451 73.851 87.9 87.9 0 0 0 71.1.963 86.994 86.994 0 0 0 45.865-46.962 84.627 84.627 0 0 0 1.86-54.823 151.775 151.775 0 0 0-9.89-25.408l-17.5-33.787-47.347-91.123-32.632-62.788-20.2-38.856a48.435 48.435 0 0 0-2.408-4.268c.356-1.074 1.059-1.993 1.445-3l18.924-36.8a.246.246 0 0 1 .133-.126.22.22 0 0 1 .193 0z"></path>
<path fill="#0033a0" d="m128.12 142.233 12.04 23.266 29.216 56.187 27.66 53.586 4.609 8.9 17.034 33.15a76.84 76.84 0 0 1 9.981 41.916 65.816 65.816 0 0 1-44.48 57.135 68.124 68.124 0 0 1-74.859-20.966 68.991 68.991 0 0 1-12.136-59.288 92.152 92.152 0 0 1 6.58-18.013l30.979-60.617c0-.081.133-.081.193-.081 6.839 13.263 13.922 26.393 20.5 39.752l-.43 1.089-19.376 37.707-9.632 19.265a41.511 41.511 0 0 0 3.5 41.553 42.162 42.162 0 0 0 45.561 13 33.909 33.909 0 0 0 16.057-9.781 40.134 40.134 0 0 0 9.069-36.662 52.636 52.636 0 0 0-2.749-8.5l-12.452-24.366-50.333-96.85-45.114-86.691-1.719-3.757c5.157-10.336 10.329-20.6 15.767-30.794 1.334-2.949 2.89-5.809 4.416-8.7h.126zm399.997-39.218h-78.26v6.646c0 17.338 12.166-3.319 22.132 26.926l8.5 26.185-44.954 135.425-52.771-159.394a35.9 35.9 0 0 1-2.564-10.344c0-17.657 19.9-4.009 19.9-18.8v-6.644h-77.457v6.646c0 15.508 10.692-4.06 21.384 29.157l74.555 227.658h15.108l56.827-171.197 56.431 171.2h15.493l71.218-219.942c14.026-43.538 26.2-20.28 26.2-36.922v-6.6h-60.173v6.646c0 14.449 18.8 2.956 18.8 16.62a115.509 115.509 0 0 1-6.631 26.934l-48.32 148.694-52.4-158.3a60.291 60.291 0 0 1-3.66-14c0-16.242 20.643-4.06 20.643-19.939zm254.088 169.419h-88.536l43.9-108.142zm18.079 45.739a61.715 61.715 0 0 1 5.92 19.887c0 14.449-19.265 3.7-19.265 17.664v6.624h82.631v-6.624c0-16.953-11.433 4.816-25.467-29.512l-92.981-225.057c-.333-.756-1.815-6.661-3.675-6.661a99.213 99.213 0 0 0-14.034 7.765c-2.193 1.467-15.138 7.758-15.138 12.544a54.779 54.779 0 0 0 5.173 14.763l4.431 11.077-72.244 177.479c-16.953 41.308-31.72 21.754-31.72 37.618v6.632h65.671v-6.632c0-14.775-18.813-3.7-18.813-20.295a75.083 75.083 0 0 1 6.276-21.414l9.2-23.97h102.232z"></path>
<path fill="#006ba6" d="M966.506 119.679h20.28c68.242 0 31.365 43.924 61.24 43.924h7V97.561a52.519 52.519 0 0 1-24.689 5.535H864.674a52.668 52.668 0 0 1-24.726-5.535v66.041h7c29.89 0-7-43.924 61.247-43.924h20.258v209.587c0 30.631-22.125 10.336-22.125 26.571v6.632h82.3v-6.632c0-16.219-22.154 4.06-22.154-26.571zm114.045 242.751h190v-67.538h-6.646c-27.66 0 6.646 50.941-63.426 50.941h-61.637V235.861h28.415c35.047 0 14.019 26.585 38.019 26.585h6.276v-67.909h-6.276c-22.881 0 1.474 24.726-38.019 24.726h-28.415v-99.532h53.9c53.119 0 30.979 42.071 55.349 42.071h6.95V97.591a52.8 52.8 0 0 1-24.718 5.49h-149.439v6.646c0 16.242 19.924-4.016 19.924 26.585v192.953c0 30.631-20.287 10.336-20.287 26.585zm275.841-141.693v-102.2h47.228a46.832 46.832 0 0 1 48.71 44.872c.059 1.4.052 2.808-.022 4.209 0 40.582-30.238 53.1-59.039 53.1zm0 15.508h11.44c25.452 0 29.883 8.477 51.378 44.954l47.955 81.149h55.349v-6.624c0-16.62-11.811 3.69-31.72-28.786l-42.8-69.724c-8.5-14.019-14.775-23.266-32.461-25.1v-.7c38.737-.741 77.808-22.155 77.808-65.678 0-49.762-51.274-62.722-78.66-62.722h-116.55v6.646c0 16.234 20.273-4.016 20.273 26.571v192.953c0 30.631-20.673 10.351-20.673 26.586v6.632h78.986v-6.632c0-16.212-20.31 4.016-20.31-26.586z"></path>
<path fill="#0033a0" d="M423.613 405.88h-3.275a1.451 1.451 0 0 1-1.326 1.237c-2.1 0-5.787-4.55-14.315-4.55-16.864 0-25.178 17.279-25.178 30.92a27.99 27.99 0 0 0 24.852 30.816c.415.044.83.082 1.252.1a22.257 22.257 0 0 0 19.894-11.361l-2.838-2.253a19.541 19.541 0 0 1-15.553 9.366c-14.219 0-18.331-15.73-18.331-26.83 0-10.551 2.727-27.171 16.368-27.171 14.389 0 11.24 15.145 16.375 15.145h2.1zm89.907 58.528a29.1 29.1 0 0 0 27.786-30.357 12.593 12.593 0 0 0-.03-.563 28.414 28.414 0 0 0-25.741-30.853q-.489-.044-.978-.067a29.1 29.1 0 0 0-27.786 30.357c.007.193.022.378.03.563a28.419 28.419 0 0 0 25.741 30.853q.489.044.978.067m.274-3.09c-14.893 0-17.331-16.9-17.331-28.1 0-11.826 2.941-27.519 17.805-27.519s17.352 16.89 17.352 28.115c0 11.826-2.964 27.5-17.827 27.5m105.536-30.519v-23.137h10.677a10.63 10.63 0 0 1 11.048 10.188c.015.3.008.615-.007.926 0 9.188-6.839 12.04-13.4 12.04zm0 3.512h2.564c5.772 0 6.787 1.926 11.626 10.218l10.914 18.376h12.53v-1.506c0-3.749-2.653.911-7.276-6.513l-9.655-15.79c-1.926-3.164-3.349-5.253-7.365-5.676v-.178a16.023 16.023 0 0 0 17.59-14.286c.022-.207.037-.407.052-.615 0-11.292-11.6-14.226-17.827-14.226h-26.357v1.512c0 3.638 4.6-.9 4.6 6.039v43.657c0 6.965-4.69 2.341-4.69 6v1.512h17.894v-1.512c0-3.638-4.6.948-4.6-6zm113.084-2.508v-24.155h10.811a11.015 11.015 0 0 1 10.47 11.544c-.007.163-.015.326-.03.5 0 9.091-5.461 12.115-13.011 12.115zm10.225 3.527c9.677 0 20.3-4.112 20.3-16.153a15.68 15.68 0 0 0-16.188-15.152c-.422.015-.852.044-1.274.089h-26.408v1.511c0 3.638 4.764-.9 4.764 6.039v43.657c0 6.965-4.7 2.341-4.7 6v1.512h17.887v-1.512c0-3.638-4.6.948-4.6-6v-20.013zm102.593 29.082a29.1 29.1 0 0 0 27.786-30.357c-.007-.193-.022-.378-.03-.563a28.419 28.419 0 0 0-25.748-30.853c-.326-.03-.659-.052-.993-.067a29.1 29.1 0 0 0-27.786 30.357c.007.193.022.378.03.563a28.43 28.43 0 0 0 25.778 30.853c.319.03.645.052.963.067m.252-3.09c-14.893 0-17.279-16.9-17.279-28.1 0-11.826 2.949-27.519 17.827-27.519s17.279 16.894 17.279 28.119c0 11.826-2.927 27.5-17.805 27.5m107.06-30.523v-23.137h10.729a10.613 10.613 0 0 1 11.044 10.144c.015.326.015.652 0 .971a11.738 11.738 0 0 1-13.389 12.04zm0 3.512h2.623c5.765 0 6.765 1.926 11.6 10.218l10.914 18.376h12.536v-1.506c0-3.749-2.727.911-7.276-6.513l-9.692-15.79c-1.912-3.164-3.349-5.253-7.276-5.676v-.178a16.023 16.023 0 0 0 17.59-14.286c.022-.207.037-.407.052-.615 0-11.292-11.641-14.226-17.805-14.226h-26.418v1.512c0 3.638 4.55-.9 4.55 6.039v43.657c0 6.965-4.676 2.341-4.676 6v1.512h17.879v-1.512c0-3.638-4.616.948-4.616-6zm132.787 8.184h-20.006l10-24.533zm4.09 10.366a14.019 14.019 0 0 1 1.348 4.549c0 3.253-4.327.837-4.327 4.023v1.489h18.694v-1.489c0-3.86-2.6 1.067-5.765-6.676l-21.08-50.933c0-.178-.385-1.512-.837-1.512a21.631 21.631 0 0 0-3.164 1.823c-.511.348-3.438 1.815-3.438 2.838a11.8 11.8 0 0 0 1.178 3.327l1 2.512-16.368 40.219c-3.838 9.366-7.276 4.942-7.276 8.528v1.489h14.9v-1.489c0-3.349-4.26-.837-4.26-4.6a16.755 16.755 0 0 1 1.423-4.838l2.09-5.461h23.155zm98.517-44.999h4.6c15.464 0 7.113 9.951 13.878 9.951h1.586v-14.952a11.872 11.872 0 0 1-5.609 1.237h-37.521a11.792 11.792 0 0 1-5.616-1.237v14.955h1.561c6.765 0-1.563-9.951 13.893-9.951h4.6v47.51c0 6.965-5 2.349-5 6.024v1.489h18.627v-1.492c0-3.638-5.023.9-5.023-6.024zm105.394 55.038v-1.5c0-3.638-4.55.941-4.55-6v-43.663c0-6.95 4.55-2.364 4.55-6.039v-1.511h-17.813v1.512c0 3.638 4.624-.911 4.624 6.039v43.657c0 6.965-4.624 2.341-4.624 6v1.5zm92.619 1.512a29.1 29.1 0 0 0 27.786-30.357 12.593 12.593 0 0 0-.03-.563 28.388 28.388 0 0 0-25.7-30.846c-.348-.03-.689-.059-1.03-.074a29.1 29.1 0 0 0-27.793 30.357c.007.193.022.378.03.563a28.431 28.431 0 0 0 25.785 30.853q.478.044.956.067m.252-3.09c-14.878 0-17.257-16.9-17.257-28.1 0-11.826 2.9-27.519 17.805-27.519s17.279 16.894 17.279 28.119c0 11.826-2.927 27.5-17.827 27.5m94.112-50.747 34.447 52.311h4v-47.036c0-11.7 5.112-5.276 5.112-10.2v-1.5h-14.8v1.5c0 4.927 5.09-1.5 5.09 10.2v30.105l-27.536-41.834h-15.716v1.485c0 3.638 4.749-.911 4.749 6.017v39.6c0 11.677-5.276 5.261-5.276 10.173v1.5h15.619v-1.5c0-4.913-5.742 1.5-5.742-10.173z"></path>
</svg>
